<?xml version="1.0" encoding="utf-8" standalone="no"?>
<!DOCTYPE svg PUBLIC "-//W3C//DTD SVG 1.1//EN"
  "http://www.w3.org/Graphics/SVG/1.1/DTD/svg11.dtd">
<svg xmlns:xlink="http://www.w3.org/1999/xlink" width="421.950664pt" height="205.375125pt" viewBox="0 0 421.950664 205.375125" xmlns="http://www.w3.org/2000/svg" version="1.1">
 <metadata>
  <rdf:RDF xmlns:dc="http://purl.org/dc/elements/1.1/" xmlns:cc="http://creativecommons.org/ns#" xmlns:rdf="http://www.w3.org/1999/02/22-rdf-syntax-ns#">
   <cc:Work>
    <dc:type rdf:resource="http://purl.org/dc/dcmitype/StillImage"/>
    <dc:date>2024-10-23T23:02:13.887643</dc:date>
    <dc:format>image/svg+xml</dc:format>
    <dc:creator>
     <cc:Agent>
      <dc:title>Matplotlib v3.9.2, https://matplotlib.org/</dc:title>
     </cc:Agent>
    </dc:creator>
   </cc:Work>
  </rdf:RDF>
 </metadata>
 <defs>
  <style type="text/css">*{stroke-linejoin: round; stroke-linecap: butt}</style>
 </defs>
 <g id="figure_1">
  <g id="patch_1">
   <path d="M 0 205.375125 
L 421.950664 205.375125 
L 421.950664 0 
L 0 0 
z
" style="fill: #ffffff"/>
  </g>
  <g id="axes_1">
   <g id="patch_2">
    <path d="M 26.2025 179.961375 
L 418.350664 179.961375 
L 418.350664 16.3695 
L 26.2025 16.3695 
z
" style="fill: #ffffff"/>
   </g>
   <g id="matplotlib.axis_1">
    <g id="xtick_1">
     <g id="line2d_1">
      <path d="M 63.125541 179.961375 
L 63.125541 16.3695 
" clip-path="url(#p45c1d06145)" style="fill: none; stroke: #000000; stroke-opacity: 0.2; stroke-width: 0.5; stroke-linecap: square"/>
     </g>
     <g id="line2d_2">
      <defs>
       <path id="m9135b00193" d="M 0 0 
L 0 -3 
" style="stroke: #000000; stroke-width: 0.5"/>
      </defs>
      <g>
       <use xlink:href="#m9135b00193" x="63.125541" y="179.961375" style="stroke: #000000; stroke-width: 0.5"/>
      </g>
     </g>
     <g id="line2d_3">
      <defs>
       <path id="mb83d8d0b0b" d="M 0 0 
L 0 3 
" style="stroke: #000000; stroke-width: 0.5"/>
      </defs>
      <g>
       <use xlink:href="#mb83d8d0b0b" x="63.125541" y="16.3695" style="stroke: #000000; stroke-width: 0.5"/>
      </g>
     </g>
     <g id="text_1">
      <!-- eng$\mathrm{\_}$Latn -->
      <g transform="translate(46.725541 188.981375) scale(0.08 -0.08)">
       <defs>
        <path id="Cmr10-65" d="M 1594 -72 
Q 1203 -72 876 133 
Q 550 338 364 680 
Q 178 1022 178 1403 
Q 178 1778 348 2115 
Q 519 2453 823 2661 
Q 1128 2869 1503 2869 
Q 1797 2869 2014 2770 
Q 2231 2672 2372 2497 
Q 2513 2322 2584 2084 
Q 2656 1847 2656 1563 
Q 2656 1478 2591 1478 
L 738 1478 
L 738 1409 
Q 738 878 952 497 
Q 1166 116 1650 116 
Q 1847 116 2014 203 
Q 2181 291 2304 447 
Q 2428 603 2472 781 
Q 2478 803 2495 820 
Q 2513 838 2534 838 
L 2591 838 
Q 2656 838 2656 756 
Q 2566 394 2266 161 
Q 1966 -72 1594 -72 
z
M 744 1638 
L 2203 1638 
Q 2203 1878 2136 2125 
Q 2069 2372 1912 2536 
Q 1756 2700 1503 2700 
Q 1141 2700 942 2361 
Q 744 2022 744 1638 
z
" transform="scale(0.015625)"/>
        <path id="Cmr10-6e" d="M 191 0 
L 191 225 
Q 409 225 550 259 
Q 691 294 691 428 
L 691 2175 
Q 691 2347 639 2423 
Q 588 2500 491 2517 
Q 394 2534 191 2534 
L 191 2759 
L 1119 2828 
L 1119 2203 
Q 1247 2478 1498 2653 
Q 1750 2828 2047 2828 
Q 2491 2828 2714 2615 
Q 2938 2403 2938 1966 
L 2938 428 
Q 2938 294 3078 259 
Q 3219 225 3438 225 
L 3438 0 
L 1972 0 
L 1972 225 
Q 2191 225 2331 259 
Q 2472 294 2472 428 
L 2472 1947 
Q 2472 2259 2381 2461 
Q 2291 2663 2009 2663 
Q 1638 2663 1398 2366 
Q 1159 2069 1159 1691 
L 1159 428 
Q 1159 294 1300 259 
Q 1441 225 1656 225 
L 1656 0 
L 191 0 
z
" transform="scale(0.015625)"/>
        <path id="Cmr10-67" d="M 178 -500 
Q 178 -272 343 -101 
Q 509 69 738 141 
Q 609 238 542 384 
Q 475 531 475 697 
Q 475 997 666 1228 
Q 372 1516 372 1888 
Q 372 2088 458 2263 
Q 544 2438 697 2566 
Q 850 2694 1037 2761 
Q 1225 2828 1422 2828 
Q 1803 2828 2106 2606 
Q 2238 2747 2417 2823 
Q 2597 2900 2791 2900 
Q 2928 2900 3015 2801 
Q 3103 2703 3103 2566 
Q 3103 2488 3043 2428 
Q 2984 2369 2906 2369 
Q 2825 2369 2765 2428 
Q 2706 2488 2706 2566 
Q 2706 2684 2784 2731 
Q 2453 2731 2216 2503 
Q 2331 2388 2401 2220 
Q 2472 2053 2472 1888 
Q 2472 1616 2322 1398 
Q 2172 1181 1926 1061 
Q 1681 941 1422 941 
Q 1072 941 781 1131 
Q 691 1006 691 850 
Q 691 681 802 554 
Q 913 428 1081 428 
L 1606 428 
Q 1988 428 2294 359 
Q 2600 291 2808 84 
Q 3016 -122 3016 -500 
Q 3016 -781 2778 -967 
Q 2541 -1153 2211 -1236 
Q 1881 -1319 1600 -1319 
Q 1316 -1319 984 -1236 
Q 653 -1153 415 -967 
Q 178 -781 178 -500 
z
M 538 -500 
Q 538 -716 713 -861 
Q 888 -1006 1134 -1076 
Q 1381 -1147 1600 -1147 
Q 1816 -1147 2062 -1076 
Q 2309 -1006 2482 -861 
Q 2656 -716 2656 -500 
Q 2656 -166 2350 -67 
Q 2044 31 1606 31 
L 1081 31 
Q 934 31 811 -39 
Q 688 -109 613 -236 
Q 538 -363 538 -500 
z
M 1422 1113 
Q 1966 1113 1966 1888 
Q 1966 2222 1850 2439 
Q 1734 2656 1422 2656 
Q 1109 2656 993 2439 
Q 878 2222 878 1888 
Q 878 1675 922 1503 
Q 966 1331 1084 1222 
Q 1203 1113 1422 1113 
z
" transform="scale(0.015625)"/>
        <path id="Cmtt10-5f" d="M 569 -609 
Q 478 -594 418 -531 
Q 359 -469 359 -384 
Q 359 -294 418 -231 
Q 478 -169 569 -159 
L 2784 -159 
Q 2875 -169 2934 -228 
Q 2994 -288 2994 -384 
Q 2994 -475 2934 -534 
Q 2875 -594 2784 -609 
L 569 -609 
z
" transform="scale(0.015625)"/>
        <path id="Cmr10-4c" d="M 197 0 
L 197 225 
Q 856 225 856 428 
L 856 3944 
Q 856 4147 197 4147 
L 197 4372 
L 2272 4372 
L 2272 4147 
Q 1453 4147 1453 3944 
L 1453 428 
Q 1453 291 1531 258 
Q 1609 225 1778 225 
L 2272 225 
Q 2750 225 3009 400 
Q 3269 575 3376 876 
Q 3484 1178 3541 1678 
L 3725 1678 
L 3547 0 
L 197 0 
z
" transform="scale(0.015625)"/>
        <path id="Cmr10-61" d="M 256 628 
Q 256 1009 556 1248 
Q 856 1488 1276 1586 
Q 1697 1684 2075 1684 
L 2075 1947 
Q 2075 2131 1994 2304 
Q 1913 2478 1759 2589 
Q 1606 2700 1422 2700 
Q 997 2700 775 2509 
Q 897 2509 976 2417 
Q 1056 2325 1056 2203 
Q 1056 2075 965 1984 
Q 875 1894 750 1894 
Q 622 1894 531 1984 
Q 441 2075 441 2203 
Q 441 2541 747 2705 
Q 1053 2869 1422 2869 
Q 1681 2869 1943 2758 
Q 2206 2647 2373 2440 
Q 2541 2234 2541 1959 
L 2541 519 
Q 2541 394 2594 289 
Q 2647 184 2759 184 
Q 2866 184 2917 290 
Q 2969 397 2969 519 
L 2969 928 
L 3156 928 
L 3156 519 
Q 3156 375 3081 245 
Q 3006 116 2879 39 
Q 2753 -38 2606 -38 
Q 2419 -38 2283 107 
Q 2147 253 2131 453 
Q 2013 213 1781 70 
Q 1550 -72 1288 -72 
Q 1044 -72 808 0 
Q 572 72 414 226 
Q 256 381 256 628 
z
M 775 628 
Q 775 403 940 250 
Q 1106 97 1331 97 
Q 1538 97 1706 200 
Q 1875 303 1975 481 
Q 2075 659 2075 856 
L 2075 1522 
Q 1784 1522 1479 1426 
Q 1175 1331 975 1128 
Q 775 925 775 628 
z
" transform="scale(0.015625)"/>
        <path id="Cmr10-74" d="M 653 769 
L 653 2534 
L 122 2534 
L 122 2700 
Q 541 2700 737 3090 
Q 934 3481 934 3938 
L 1119 3938 
L 1119 2759 
L 2022 2759 
L 2022 2534 
L 1119 2534 
L 1119 781 
Q 1119 516 1208 316 
Q 1297 116 1528 116 
Q 1747 116 1844 327 
Q 1941 538 1941 781 
L 1941 1159 
L 2125 1159 
L 2125 769 
Q 2125 569 2051 373 
Q 1978 178 1834 53 
Q 1691 -72 1484 -72 
Q 1100 -72 876 158 
Q 653 388 653 769 
z
" transform="scale(0.015625)"/>
       </defs>
       <use xlink:href="#Cmr10-65" transform="translate(0 0.6875)"/>
       <use xlink:href="#Cmr10-6e" transform="translate(44.384766 0.6875)"/>
       <use xlink:href="#Cmr10-67" transform="translate(99.902344 0.6875)"/>
       <use xlink:href="#Cmtt10-5f" transform="translate(149.902344 0.6875)"/>
       <use xlink:href="#Cmr10-4c" transform="translate(202.392578 0.6875)"/>
       <use xlink:href="#Cmr10-61" transform="translate(264.892578 0.6875)"/>
       <use xlink:href="#Cmr10-74" transform="translate(314.892578 0.6875)"/>
       <use xlink:href="#Cmr10-6e" transform="translate(353.710938 0.6875)"/>
      </g>
     </g>
    </g>
    <g id="xtick_2">
     <g id="line2d_4">
      <path d="M 126.785958 179.961375 
L 126.785958 16.3695 
" clip-path="url(#p45c1d06145)" style="fill: none; stroke: #000000; stroke-opacity: 0.2; stroke-width: 0.5; stroke-linecap: square"/>
     </g>
     <g id="line2d_5">
      <g>
       <use xlink:href="#m9135b00193" x="126.785958" y="179.961375" style="stroke: #000000; stroke-width: 0.5"/>
      </g>
     </g>
     <g id="line2d_6">
      <g>
       <use xlink:href="#mb83d8d0b0b" x="126.785958" y="16.3695" style="stroke: #000000; stroke-width: 0.5"/>
      </g>
     </g>
     <g id="text_2">
      <!-- spa$\mathrm{\_}$Latn -->
      <g transform="translate(110.585958 188.981375) scale(0.08 -0.08)">
       <defs>
        <path id="Cmr10-73" d="M 213 -19 
L 213 1025 
Q 213 1075 269 1075 
L 347 1075 
Q 384 1075 397 1025 
Q 575 97 1259 97 
Q 1563 97 1767 234 
Q 1972 372 1972 659 
Q 1972 866 1812 1011 
Q 1653 1156 1434 1209 
L 1006 1294 
Q 791 1341 614 1437 
Q 438 1534 325 1695 
Q 213 1856 213 2069 
Q 213 2350 361 2529 
Q 509 2709 746 2789 
Q 984 2869 1259 2869 
Q 1588 2869 1831 2694 
L 2016 2853 
Q 2016 2869 2047 2869 
L 2094 2869 
Q 2113 2869 2128 2851 
Q 2144 2834 2144 2816 
L 2144 1978 
Q 2144 1919 2094 1919 
L 2016 1919 
Q 1959 1919 1959 1978 
Q 1959 2313 1773 2516 
Q 1588 2719 1253 2719 
Q 966 2719 755 2612 
Q 544 2506 544 2247 
Q 544 2069 695 1955 
Q 847 1841 1050 1791 
L 1484 1709 
Q 1703 1659 1892 1540 
Q 2081 1422 2192 1240 
Q 2303 1059 2303 831 
Q 2303 600 2223 429 
Q 2144 259 2001 146 
Q 1859 34 1665 -19 
Q 1472 -72 1259 -72 
Q 859 -72 575 197 
L 341 -56 
Q 341 -72 306 -72 
L 269 -72 
Q 213 -72 213 -19 
z
" transform="scale(0.015625)"/>
        <path id="Cmr10-70" d="M 166 -1241 
L 166 -1019 
Q 384 -1019 525 -981 
Q 666 -944 666 -813 
L 666 2272 
Q 666 2447 541 2490 
Q 416 2534 166 2534 
L 166 2759 
L 1113 2828 
L 1113 2431 
Q 1288 2625 1520 2726 
Q 1753 2828 2016 2828 
Q 2394 2828 2697 2623 
Q 3000 2419 3170 2086 
Q 3341 1753 3341 1381 
Q 3341 994 3152 659 
Q 2963 325 2636 126 
Q 2309 -72 1919 -72 
Q 1453 -72 1131 306 
L 1131 -813 
Q 1131 -944 1273 -981 
Q 1416 -1019 1631 -1019 
L 1631 -1241 
L 166 -1241 
z
M 1131 622 
Q 1244 394 1444 245 
Q 1644 97 1881 97 
Q 2103 97 2273 215 
Q 2444 334 2559 534 
Q 2675 734 2729 954 
Q 2784 1175 2784 1381 
Q 2784 1638 2692 1936 
Q 2600 2234 2411 2439 
Q 2222 2644 1953 2644 
Q 1694 2644 1476 2511 
Q 1259 2378 1131 2150 
L 1131 622 
z
" transform="scale(0.015625)"/>
       </defs>
       <use xlink:href="#Cmr10-73" transform="translate(0 0.6875)"/>
       <use xlink:href="#Cmr10-70" transform="translate(39.404297 0.6875)"/>
       <use xlink:href="#Cmr10-61" transform="translate(94.921875 0.6875)"/>
       <use xlink:href="#Cmtt10-5f" transform="translate(144.921875 0.6875)"/>
       <use xlink:href="#Cmr10-4c" transform="translate(197.412109 0.6875)"/>
       <use xlink:href="#Cmr10-61" transform="translate(259.912109 0.6875)"/>
       <use xlink:href="#Cmr10-74" transform="translate(309.912109 0.6875)"/>
       <use xlink:href="#Cmr10-6e" transform="translate(348.730469 0.6875)"/>
      </g>
     </g>
    </g>
    <g id="xtick_3">
     <g id="line2d_7">
      <path d="M 190.446374 179.961375 
L 190.446374 16.3695 
" clip-path="url(#p45c1d06145)" style="fill: none; stroke: #000000; stroke-opacity: 0.2; stroke-width: 0.5; stroke-linecap: square"/>
     </g>
     <g id="line2d_8">
      <g>
       <use xlink:href="#m9135b00193" x="190.446374" y="179.961375" style="stroke: #000000; stroke-width: 0.5"/>
      </g>
     </g>
     <g id="line2d_9">
      <g>
       <use xlink:href="#mb83d8d0b0b" x="190.446374" y="16.3695" style="stroke: #000000; stroke-width: 0.5"/>
      </g>
     </g>
     <g id="text_3">
      <!-- deu$\mathrm{\_}$Latn -->
      <g transform="translate(173.846374 189.012625) scale(0.08 -0.08)">
       <defs>
        <path id="Cmr10-64" d="M 1563 -72 
Q 1184 -72 871 133 
Q 559 338 386 672 
Q 213 1006 213 1381 
Q 213 1769 402 2101 
Q 591 2434 916 2631 
Q 1241 2828 1631 2828 
Q 1866 2828 2075 2729 
Q 2284 2631 2438 2456 
L 2438 3788 
Q 2438 3959 2386 4036 
Q 2334 4113 2239 4130 
Q 2144 4147 1941 4147 
L 1941 4372 
L 2888 4441 
L 2888 581 
Q 2888 413 2939 336 
Q 2991 259 3086 242 
Q 3181 225 3384 225 
L 3384 0 
L 2419 -72 
L 2419 331 
Q 2253 141 2025 34 
Q 1797 -72 1563 -72 
z
M 909 556 
Q 1019 347 1201 222 
Q 1384 97 1600 97 
Q 1866 97 2087 250 
Q 2309 403 2419 647 
L 2419 2181 
Q 2344 2322 2230 2433 
Q 2116 2544 1973 2603 
Q 1831 2663 1672 2663 
Q 1338 2663 1134 2473 
Q 931 2284 850 1990 
Q 769 1697 769 1375 
Q 769 1119 795 928 
Q 822 738 909 556 
z
" transform="scale(0.015625)"/>
        <path id="Cmr10-75" d="M 691 763 
L 691 2175 
Q 691 2347 639 2423 
Q 588 2500 491 2517 
Q 394 2534 191 2534 
L 191 2759 
L 1159 2828 
L 1159 763 
Q 1159 513 1195 373 
Q 1231 234 1348 165 
Q 1466 97 1722 97 
Q 2066 97 2269 384 
Q 2472 672 2472 1038 
L 2472 2175 
Q 2472 2347 2419 2423 
Q 2366 2500 2270 2517 
Q 2175 2534 1972 2534 
L 1972 2759 
L 2938 2828 
L 2938 581 
Q 2938 413 2989 336 
Q 3041 259 3137 242 
Q 3234 225 3438 225 
L 3438 0 
L 2491 -72 
L 2491 469 
Q 2372 228 2159 78 
Q 1947 -72 1691 -72 
Q 1231 -72 961 123 
Q 691 319 691 763 
z
" transform="scale(0.015625)"/>
       </defs>
       <use xlink:href="#Cmr10-64" transform="translate(0 0.609375)"/>
       <use xlink:href="#Cmr10-65" transform="translate(55.517578 0.609375)"/>
       <use xlink:href="#Cmr10-75" transform="translate(99.902344 0.609375)"/>
       <use xlink:href="#Cmtt10-5f" transform="translate(155.419922 0.609375)"/>
       <use xlink:href="#Cmr10-4c" transform="translate(207.910156 0.609375)"/>
       <use xlink:href="#Cmr10-61" transform="translate(270.410156 0.609375)"/>
       <use xlink:href="#Cmr10-74" transform="translate(320.410156 0.609375)"/>
       <use xlink:href="#Cmr10-6e" transform="translate(359.228516 0.609375)"/>
      </g>
     </g>
    </g>
    <g id="xtick_4">
     <g id="line2d_10">
      <path d="M 254.10679 179.961375 
L 254.10679 16.3695 
" clip-path="url(#p45c1d06145)" style="fill: none; stroke: #000000; stroke-opacity: 0.2; stroke-width: 0.5; stroke-linecap: square"/>
     </g>
     <g id="line2d_11">
      <g>
       <use xlink:href="#m9135b00193" x="254.10679" y="179.961375" style="stroke: #000000; stroke-width: 0.5"/>
      </g>
     </g>
     <g id="line2d_12">
      <g>
       <use xlink:href="#mb83d8d0b0b" x="254.10679" y="16.3695" style="stroke: #000000; stroke-width: 0.5"/>
      </g>
     </g>
     <g id="text_4">
      <!-- arb$\mathrm{\_}$Arab -->
      <g transform="translate(237.42679 189.012625) scale(0.08 -0.08)">
       <defs>
        <path id="Cmr10-72" d="M 166 0 
L 166 225 
Q 384 225 525 259 
Q 666 294 666 428 
L 666 2175 
Q 666 2347 614 2423 
Q 563 2500 466 2517 
Q 369 2534 166 2534 
L 166 2759 
L 1081 2828 
L 1081 2203 
Q 1184 2481 1375 2654 
Q 1566 2828 1838 2828 
Q 2028 2828 2178 2715 
Q 2328 2603 2328 2419 
Q 2328 2303 2245 2217 
Q 2163 2131 2041 2131 
Q 1922 2131 1837 2215 
Q 1753 2300 1753 2419 
Q 1753 2591 1875 2663 
L 1838 2663 
Q 1578 2663 1414 2475 
Q 1250 2288 1181 2009 
Q 1113 1731 1113 1478 
L 1113 428 
Q 1113 225 1734 225 
L 1734 0 
L 166 0 
z
" transform="scale(0.015625)"/>
        <path id="Cmr10-62" d="M 666 0 
L 666 3788 
Q 666 3959 614 4036 
Q 563 4113 466 4130 
Q 369 4147 166 4147 
L 166 4372 
L 1113 4441 
L 1113 2438 
Q 1219 2556 1361 2645 
Q 1503 2734 1665 2781 
Q 1828 2828 1997 2828 
Q 2284 2828 2529 2712 
Q 2775 2597 2956 2394 
Q 3138 2191 3239 1927 
Q 3341 1663 3341 1381 
Q 3341 994 3152 659 
Q 2963 325 2636 126 
Q 2309 -72 1919 -72 
Q 1675 -72 1447 53 
Q 1219 178 1069 384 
L 850 0 
L 666 0 
z
M 1131 628 
Q 1238 394 1438 245 
Q 1638 97 1881 97 
Q 2213 97 2417 287 
Q 2622 478 2703 768 
Q 2784 1059 2784 1381 
Q 2784 1922 2644 2203 
Q 2581 2328 2473 2434 
Q 2366 2541 2233 2602 
Q 2100 2663 1953 2663 
Q 1697 2663 1478 2527 
Q 1259 2391 1131 2163 
L 1131 628 
z
" transform="scale(0.015625)"/>
        <path id="Cmr10-41" d="M 206 0 
L 206 225 
Q 778 225 909 603 
L 2253 4513 
Q 2272 4581 2356 4581 
L 2438 4581 
Q 2522 4581 2541 4513 
L 3944 428 
Q 4003 294 4170 259 
Q 4338 225 4588 225 
L 4588 0 
L 2803 0 
L 2803 225 
Q 3334 225 3334 397 
L 3334 428 
L 2988 1428 
L 1434 1428 
L 1147 603 
Q 1141 581 1141 538 
Q 1141 378 1292 301 
Q 1444 225 1619 225 
L 1619 0 
L 206 0 
z
M 1509 1650 
L 2913 1650 
L 2209 3694 
L 1509 1650 
z
" transform="scale(0.015625)"/>
       </defs>
       <use xlink:href="#Cmr10-61" transform="translate(0 0.421875)"/>
       <use xlink:href="#Cmr10-72" transform="translate(50 0.421875)"/>
       <use xlink:href="#Cmr10-62" transform="translate(89.111328 0.421875)"/>
       <use xlink:href="#Cmtt10-5f" transform="translate(144.628906 0.421875)"/>
       <use xlink:href="#Cmr10-41" transform="translate(197.119141 0.421875)"/>
       <use xlink:href="#Cmr10-72" transform="translate(272.119141 0.421875)"/>
       <use xlink:href="#Cmr10-61" transform="translate(311.230469 0.421875)"/>
       <use xlink:href="#Cmr10-62" transform="translate(361.230469 0.421875)"/>
      </g>
     </g>
    </g>
    <g id="xtick_5">
     <g id="line2d_13">
      <path d="M 317.767206 179.961375 
L 317.767206 16.3695 
" clip-path="url(#p45c1d06145)" style="fill: none; stroke: #000000; stroke-opacity: 0.2; stroke-width: 0.5; stroke-linecap: square"/>
     </g>
     <g id="line2d_14">
      <g>
       <use xlink:href="#m9135b00193" x="317.767206" y="179.961375" style="stroke: #000000; stroke-width: 0.5"/>
      </g>
     </g>
     <g id="line2d_15">
      <g>
       <use xlink:href="#mb83d8d0b0b" x="317.767206" y="16.3695" style="stroke: #000000; stroke-width: 0.5"/>
      </g>
     </g>
     <g id="text_5">
      <!-- tam$\mathrm{\_}$Taml -->
      <g transform="translate(299.447206 189.012625) scale(0.08 -0.08)">
       <defs>
        <path id="Cmr10-6d" d="M 191 0 
L 191 225 
Q 409 225 550 259 
Q 691 294 691 428 
L 691 2175 
Q 691 2347 639 2423 
Q 588 2500 491 2517 
Q 394 2534 191 2534 
L 191 2759 
L 1119 2828 
L 1119 2203 
Q 1247 2478 1498 2653 
Q 1750 2828 2047 2828 
Q 2784 2828 2913 2228 
Q 3041 2497 3287 2662 
Q 3534 2828 3828 2828 
Q 4119 2828 4317 2734 
Q 4516 2641 4616 2448 
Q 4716 2256 4716 1966 
L 4716 428 
Q 4716 294 4858 259 
Q 5000 225 5216 225 
L 5216 0 
L 3750 0 
L 3750 225 
Q 3969 225 4109 259 
Q 4250 294 4250 428 
L 4250 1947 
Q 4250 2269 4159 2466 
Q 4069 2663 3788 2663 
Q 3419 2663 3178 2366 
Q 2938 2069 2938 1691 
L 2938 428 
Q 2938 294 3078 259 
Q 3219 225 3438 225 
L 3438 0 
L 1972 0 
L 1972 225 
Q 2191 225 2331 259 
Q 2472 294 2472 428 
L 2472 1947 
Q 2472 2259 2381 2461 
Q 2291 2663 2009 2663 
Q 1638 2663 1398 2366 
Q 1159 2069 1159 1691 
L 1159 428 
Q 1159 294 1300 259 
Q 1441 225 1656 225 
L 1656 0 
L 191 0 
z
" transform="scale(0.015625)"/>
        <path id="Cmr10-54" d="M 1081 0 
L 1081 225 
Q 1403 225 1706 261 
Q 2009 297 2009 428 
L 2009 3944 
Q 2009 4081 1932 4114 
Q 1856 4147 1684 4147 
L 1416 4147 
Q 888 4147 666 3916 
Q 550 3800 500 3545 
Q 450 3291 416 2906 
L 231 2906 
L 353 4372 
L 4263 4372 
L 4384 2906 
L 4197 2906 
Q 4159 3319 4114 3561 
Q 4069 3803 3950 3916 
Q 3725 4147 3200 4147 
L 2931 4147 
Q 2816 4147 2752 4137 
Q 2688 4128 2647 4083 
Q 2606 4038 2606 3944 
L 2606 428 
Q 2606 297 2909 261 
Q 3213 225 3531 225 
L 3531 0 
L 1081 0 
z
" transform="scale(0.015625)"/>
        <path id="Cmr10-6c" d="M 197 0 
L 197 225 
Q 416 225 556 259 
Q 697 294 697 428 
L 697 3788 
Q 697 3959 645 4036 
Q 594 4113 497 4130 
Q 400 4147 197 4147 
L 197 4372 
L 1147 4441 
L 1147 428 
Q 1147 294 1287 259 
Q 1428 225 1644 225 
L 1644 0 
L 197 0 
z
" transform="scale(0.015625)"/>
       </defs>
       <use xlink:href="#Cmr10-74" transform="translate(0 0.609375)"/>
       <use xlink:href="#Cmr10-61" transform="translate(38.818359 0.609375)"/>
       <use xlink:href="#Cmr10-6d" transform="translate(88.818359 0.609375)"/>
       <use xlink:href="#Cmtt10-5f" transform="translate(172.119141 0.609375)"/>
       <use xlink:href="#Cmr10-54" transform="translate(224.609375 0.609375)"/>
       <use xlink:href="#Cmr10-61" transform="translate(296.826172 0.609375)"/>
       <use xlink:href="#Cmr10-6d" transform="translate(346.826172 0.609375)"/>
       <use xlink:href="#Cmr10-6c" transform="translate(430.126953 0.609375)"/>
      </g>
     </g>
    </g>
    <g id="xtick_6">
     <g id="line2d_16">
      <path d="M 381.427623 179.961375 
L 381.427623 16.3695 
" clip-path="url(#p45c1d06145)" style="fill: none; stroke: #000000; stroke-opacity: 0.2; stroke-width: 0.5; stroke-linecap: square"/>
     </g>
     <g id="line2d_17">
      <g>
       <use xlink:href="#m9135b00193" x="381.427623" y="179.961375" style="stroke: #000000; stroke-width: 0.5"/>
      </g>
     </g>
     <g id="line2d_18">
      <g>
       <use xlink:href="#mb83d8d0b0b" x="381.427623" y="16.3695" style="stroke: #000000; stroke-width: 0.5"/>
      </g>
     </g>
     <g id="text_6">
      <!-- quy$\mathrm{\_}$Latn -->
      <g transform="translate(364.587623 188.981375) scale(0.08 -0.08)">
       <defs>
        <path id="Cmr10-71" d="M 1919 -1241 
L 1919 -1019 
Q 2138 -1019 2278 -981 
Q 2419 -944 2419 -813 
L 2419 372 
Q 2269 172 2041 50 
Q 1813 -72 1563 -72 
Q 1275 -72 1028 47 
Q 781 166 598 369 
Q 416 572 314 839 
Q 213 1106 213 1381 
Q 213 1763 400 2098 
Q 588 2434 914 2631 
Q 1241 2828 1619 2828 
Q 1891 2828 2122 2675 
Q 2353 2522 2491 2266 
L 2719 2828 
L 2888 2828 
L 2888 -813 
Q 2888 -944 3028 -981 
Q 3169 -1019 3384 -1019 
L 3384 -1241 
L 1919 -1241 
z
M 1600 97 
Q 1884 97 2107 286 
Q 2331 475 2438 763 
L 2438 1888 
Q 2372 2194 2165 2419 
Q 1959 2644 1672 2644 
Q 1453 2644 1281 2528 
Q 1109 2413 995 2219 
Q 881 2025 825 1800 
Q 769 1575 769 1375 
Q 769 1119 859 817 
Q 950 516 1137 306 
Q 1325 97 1600 97 
z
" transform="scale(0.015625)"/>
        <path id="Cmr10-79" d="M 441 -1050 
Q 563 -1147 709 -1147 
Q 1113 -1147 1369 -538 
L 1588 0 
L 628 2350 
Q 569 2469 447 2501 
Q 325 2534 122 2534 
L 122 2759 
L 1466 2759 
L 1466 2534 
Q 1113 2534 1113 2381 
Q 1113 2356 1119 2344 
L 1831 594 
L 2472 2169 
Q 2491 2219 2491 2278 
Q 2491 2356 2448 2414 
Q 2406 2472 2339 2503 
Q 2272 2534 2188 2534 
L 2188 2759 
L 3250 2759 
L 3250 2534 
Q 3053 2534 2904 2443 
Q 2756 2353 2675 2175 
L 1569 -538 
Q 1481 -744 1364 -917 
Q 1247 -1091 1078 -1202 
Q 909 -1313 709 -1313 
Q 475 -1313 298 -1158 
Q 122 -1003 122 -775 
Q 122 -656 203 -575 
Q 284 -494 403 -494 
Q 484 -494 548 -530 
Q 613 -566 648 -628 
Q 684 -691 684 -775 
Q 684 -878 615 -959 
Q 547 -1041 441 -1050 
z
" transform="scale(0.015625)"/>
       </defs>
       <use xlink:href="#Cmr10-71" transform="translate(0 0.6875)"/>
       <use xlink:href="#Cmr10-75" transform="translate(52.685547 0.6875)"/>
       <use xlink:href="#Cmr10-79" transform="translate(108.203125 0.6875)"/>
       <use xlink:href="#Cmtt10-5f" transform="translate(160.888672 0.6875)"/>
       <use xlink:href="#Cmr10-4c" transform="translate(213.378906 0.6875)"/>
       <use xlink:href="#Cmr10-61" transform="translate(275.878906 0.6875)"/>
       <use xlink:href="#Cmr10-74" transform="translate(325.878906 0.6875)"/>
       <use xlink:href="#Cmr10-6e" transform="translate(364.697266 0.6875)"/>
      </g>
     </g>
    </g>
    <g id="xtick_7">
     <g id="line2d_19">
      <path d="M 37.661375 179.961375 
L 37.661375 16.3695 
" clip-path="url(#p45c1d06145)" style="fill: none; stroke-dasharray: 1.85,0.8; stroke-dashoffset: 0; stroke: #000000; stroke-opacity: 0.1; stroke-width: 0.5"/>
     </g>
     <g id="line2d_20">
      <defs>
       <path id="mfb7eb7b9ed" d="M 0 0 
L 0 1.5 
" style="stroke: #000000; stroke-width: 0.5"/>
      </defs>
      <g>
       <use xlink:href="#mfb7eb7b9ed" x="37.661375" y="16.3695" style="stroke: #000000; stroke-width: 0.5"/>
      </g>
     </g>
    </g>
    <g id="xtick_8">
     <g id="line2d_21">
      <path d="M 50.393458 179.961375 
L 50.393458 16.3695 
" clip-path="url(#p45c1d06145)" style="fill: none; stroke-dasharray: 1.85,0.8; stroke-dashoffset: 0; stroke: #000000; stroke-opacity: 0.1; stroke-width: 0.5"/>
     </g>
     <g id="line2d_22">
      <g>
       <use xlink:href="#mfb7eb7b9ed" x="50.393458" y="16.3695" style="stroke: #000000; stroke-width: 0.5"/>
      </g>
     </g>
    </g>
    <g id="xtick_9">
     <g id="line2d_23">
      <path d="M 75.857625 179.961375 
L 75.857625 16.3695 
" clip-path="url(#p45c1d06145)" style="fill: none; stroke-dasharray: 1.85,0.8; stroke-dashoffset: 0; stroke: #000000; stroke-opacity: 0.1; stroke-width: 0.5"/>
     </g>
     <g id="line2d_24">
      <g>
       <use xlink:href="#mfb7eb7b9ed" x="75.857625" y="16.3695" style="stroke: #000000; stroke-width: 0.5"/>
      </g>
     </g>
    </g>
    <g id="xtick_10">
     <g id="line2d_25">
      <path d="M 88.589708 179.961375 
L 88.589708 16.3695 
" clip-path="url(#p45c1d06145)" style="fill: none; stroke-dasharray: 1.85,0.8; stroke-dashoffset: 0; stroke: #000000; stroke-opacity: 0.1; stroke-width: 0.5"/>
     </g>
     <g id="line2d_26">
      <g>
       <use xlink:href="#mfb7eb7b9ed" x="88.589708" y="16.3695" style="stroke: #000000; stroke-width: 0.5"/>
      </g>
     </g>
    </g>
    <g id="xtick_11">
     <g id="line2d_27">
      <path d="M 101.321791 179.961375 
L 101.321791 16.3695 
" clip-path="url(#p45c1d06145)" style="fill: none; stroke-dasharray: 1.85,0.8; stroke-dashoffset: 0; stroke: #000000; stroke-opacity: 0.1; stroke-width: 0.5"/>
     </g>
     <g id="line2d_28">
      <g>
       <use xlink:href="#mfb7eb7b9ed" x="101.321791" y="16.3695" style="stroke: #000000; stroke-width: 0.5"/>
      </g>
     </g>
    </g>
    <g id="xtick_12">
     <g id="line2d_29">
      <path d="M 114.053874 179.961375 
L 114.053874 16.3695 
" clip-path="url(#p45c1d06145)" style="fill: none; stroke-dasharray: 1.85,0.8; stroke-dashoffset: 0; stroke: #000000; stroke-opacity: 0.1; stroke-width: 0.5"/>
     </g>
     <g id="line2d_30">
      <g>
       <use xlink:href="#mfb7eb7b9ed" x="114.053874" y="16.3695" style="stroke: #000000; stroke-width: 0.5"/>
      </g>
     </g>
    </g>
    <g id="xtick_13">
     <g id="line2d_31">
      <path d="M 139.518041 179.961375 
L 139.518041 16.3695 
" clip-path="url(#p45c1d06145)" style="fill: none; stroke-dasharray: 1.85,0.8; stroke-dashoffset: 0; stroke: #000000; stroke-opacity: 0.1; stroke-width: 0.5"/>
     </g>
     <g id="line2d_32">
      <g>
       <use xlink:href="#mfb7eb7b9ed" x="139.518041" y="16.3695" style="stroke: #000000; stroke-width: 0.5"/>
      </g>
     </g>
    </g>
    <g id="xtick_14">
     <g id="line2d_33">
      <path d="M 152.250124 179.961375 
L 152.250124 16.3695 
" clip-path="url(#p45c1d06145)" style="fill: none; stroke-dasharray: 1.85,0.8; stroke-dashoffset: 0; stroke: #000000; stroke-opacity: 0.1; stroke-width: 0.5"/>
     </g>
     <g id="line2d_34">
      <g>
       <use xlink:href="#mfb7eb7b9ed" x="152.250124" y="16.3695" style="stroke: #000000; stroke-width: 0.5"/>
      </g>
     </g>
    </g>
    <g id="xtick_15">
     <g id="line2d_35">
      <path d="M 164.982207 179.961375 
L 164.982207 16.3695 
" clip-path="url(#p45c1d06145)" style="fill: none; stroke-dasharray: 1.85,0.8; stroke-dashoffset: 0; stroke: #000000; stroke-opacity: 0.1; stroke-width: 0.5"/>
     </g>
     <g id="line2d_36">
      <g>
       <use xlink:href="#mfb7eb7b9ed" x="164.982207" y="16.3695" style="stroke: #000000; stroke-width: 0.5"/>
      </g>
     </g>
    </g>
    <g id="xtick_16">
     <g id="line2d_37">
      <path d="M 177.714291 179.961375 
L 177.714291 16.3695 
" clip-path="url(#p45c1d06145)" style="fill: none; stroke-dasharray: 1.85,0.8; stroke-dashoffset: 0; stroke: #000000; stroke-opacity: 0.1; stroke-width: 0.5"/>
     </g>
     <g id="line2d_38">
      <g>
       <use xlink:href="#mfb7eb7b9ed" x="177.714291" y="16.3695" style="stroke: #000000; stroke-width: 0.5"/>
      </g>
     </g>
    </g>
    <g id="xtick_17">
     <g id="line2d_39">
      <path d="M 203.178457 179.961375 
L 203.178457 16.3695 
" clip-path="url(#p45c1d06145)" style="fill: none; stroke-dasharray: 1.85,0.8; stroke-dashoffset: 0; stroke: #000000; stroke-opacity: 0.1; stroke-width: 0.5"/>
     </g>
     <g id="line2d_40">
      <g>
       <use xlink:href="#mfb7eb7b9ed" x="203.178457" y="16.3695" style="stroke: #000000; stroke-width: 0.5"/>
      </g>
     </g>
    </g>
    <g id="xtick_18">
     <g id="line2d_41">
      <path d="M 215.91054 179.961375 
L 215.91054 16.3695 
" clip-path="url(#p45c1d06145)" style="fill: none; stroke-dasharray: 1.85,0.8; stroke-dashoffset: 0; stroke: #000000; stroke-opacity: 0.1; stroke-width: 0.5"/>
     </g>
     <g id="line2d_42">
      <g>
       <use xlink:href="#mfb7eb7b9ed" x="215.91054" y="16.3695" style="stroke: #000000; stroke-width: 0.5"/>
      </g>
     </g>
    </g>
    <g id="xtick_19">
     <g id="line2d_43">
      <path d="M 228.642624 179.961375 
L 228.642624 16.3695 
" clip-path="url(#p45c1d06145)" style="fill: none; stroke-dasharray: 1.85,0.8; stroke-dashoffset: 0; stroke: #000000; stroke-opacity: 0.1; stroke-width: 0.5"/>
     </g>
     <g id="line2d_44">
      <g>
       <use xlink:href="#mfb7eb7b9ed" x="228.642624" y="16.3695" style="stroke: #000000; stroke-width: 0.5"/>
      </g>
     </g>
    </g>
    <g id="xtick_20">
     <g id="line2d_45">
      <path d="M 241.374707 179.961375 
L 241.374707 16.3695 
" clip-path="url(#p45c1d06145)" style="fill: none; stroke-dasharray: 1.85,0.8; stroke-dashoffset: 0; stroke: #000000; stroke-opacity: 0.1; stroke-width: 0.5"/>
     </g>
     <g id="line2d_46">
      <g>
       <use xlink:href="#mfb7eb7b9ed" x="241.374707" y="16.3695" style="stroke: #000000; stroke-width: 0.5"/>
      </g>
     </g>
    </g>
    <g id="xtick_21">
     <g id="line2d_47">
      <path d="M 266.838873 179.961375 
L 266.838873 16.3695 
" clip-path="url(#p45c1d06145)" style="fill: none; stroke-dasharray: 1.85,0.8; stroke-dashoffset: 0; stroke: #000000; stroke-opacity: 0.1; stroke-width: 0.5"/>
     </g>
     <g id="line2d_48">
      <g>
       <use xlink:href="#mfb7eb7b9ed" x="266.838873" y="16.3695" style="stroke: #000000; stroke-width: 0.5"/>
      </g>
     </g>
    </g>
    <g id="xtick_22">
     <g id="line2d_49">
      <path d="M 279.570957 179.961375 
L 279.570957 16.3695 
" clip-path="url(#p45c1d06145)" style="fill: none; stroke-dasharray: 1.85,0.8; stroke-dashoffset: 0; stroke: #000000; stroke-opacity: 0.1; stroke-width: 0.5"/>
     </g>
     <g id="line2d_50">
      <g>
       <use xlink:href="#mfb7eb7b9ed" x="279.570957" y="16.3695" style="stroke: #000000; stroke-width: 0.5"/>
      </g>
     </g>
    </g>
    <g id="xtick_23">
     <g id="line2d_51">
      <path d="M 292.30304 179.961375 
L 292.30304 16.3695 
" clip-path="url(#p45c1d06145)" style="fill: none; stroke-dasharray: 1.85,0.8; stroke-dashoffset: 0; stroke: #000000; stroke-opacity: 0.1; stroke-width: 0.5"/>
     </g>
     <g id="line2d_52">
      <g>
       <use xlink:href="#mfb7eb7b9ed" x="292.30304" y="16.3695" style="stroke: #000000; stroke-width: 0.5"/>
      </g>
     </g>
    </g>
    <g id="xtick_24">
     <g id="line2d_53">
      <path d="M 305.035123 179.961375 
L 305.035123 16.3695 
" clip-path="url(#p45c1d06145)" style="fill: none; stroke-dasharray: 1.85,0.8; stroke-dashoffset: 0; stroke: #000000; stroke-opacity: 0.1; stroke-width: 0.5"/>
     </g>
     <g id="line2d_54">
      <g>
       <use xlink:href="#mfb7eb7b9ed" x="305.035123" y="16.3695" style="stroke: #000000; stroke-width: 0.5"/>
      </g>
     </g>
    </g>
    <g id="xtick_25">
     <g id="line2d_55">
      <path d="M 330.49929 179.961375 
L 330.49929 16.3695 
" clip-path="url(#p45c1d06145)" style="fill: none; stroke-dasharray: 1.85,0.8; stroke-dashoffset: 0; stroke: #000000; stroke-opacity: 0.1; stroke-width: 0.5"/>
     </g>
     <g id="line2d_56">
      <g>
       <use xlink:href="#mfb7eb7b9ed" x="330.49929" y="16.3695" style="stroke: #000000; stroke-width: 0.5"/>
      </g>
     </g>
    </g>
    <g id="xtick_26">
     <g id="line2d_57">
      <path d="M 343.231373 179.961375 
L 343.231373 16.3695 
" clip-path="url(#p45c1d06145)" style="fill: none; stroke-dasharray: 1.85,0.8; stroke-dashoffset: 0; stroke: #000000; stroke-opacity: 0.1; stroke-width: 0.5"/>
     </g>
     <g id="line2d_58">
      <g>
       <use xlink:href="#mfb7eb7b9ed" x="343.231373" y="16.3695" style="stroke: #000000; stroke-width: 0.5"/>
      </g>
     </g>
    </g>
    <g id="xtick_27">
     <g id="line2d_59">
      <path d="M 355.963456 179.961375 
L 355.963456 16.3695 
" clip-path="url(#p45c1d06145)" style="fill: none; stroke-dasharray: 1.85,0.8; stroke-dashoffset: 0; stroke: #000000; stroke-opacity: 0.1; stroke-width: 0.5"/>
     </g>
     <g id="line2d_60">
      <g>
       <use xlink:href="#mfb7eb7b9ed" x="355.963456" y="16.3695" style="stroke: #000000; stroke-width: 0.5"/>
      </g>
     </g>
    </g>
    <g id="xtick_28">
     <g id="line2d_61">
      <path d="M 368.695539 179.961375 
L 368.695539 16.3695 
" clip-path="url(#p45c1d06145)" style="fill: none; stroke-dasharray: 1.85,0.8; stroke-dashoffset: 0; stroke: #000000; stroke-opacity: 0.1; stroke-width: 0.5"/>
     </g>
     <g id="line2d_62">
      <g>
       <use xlink:href="#mfb7eb7b9ed" x="368.695539" y="16.3695" style="stroke: #000000; stroke-width: 0.5"/>
      </g>
     </g>
    </g>
    <g id="xtick_29">
     <g id="line2d_63">
      <path d="M 394.159706 179.961375 
L 394.159706 16.3695 
" clip-path="url(#p45c1d06145)" style="fill: none; stroke-dasharray: 1.85,0.8; stroke-dashoffset: 0; stroke: #000000; stroke-opacity: 0.1; stroke-width: 0.5"/>
     </g>
     <g id="line2d_64">
      <g>
       <use xlink:href="#mfb7eb7b9ed" x="394.159706" y="16.3695" style="stroke: #000000; stroke-width: 0.5"/>
      </g>
     </g>
    </g>
    <g id="xtick_30">
     <g id="line2d_65">
      <path d="M 406.891789 179.961375 
L 406.891789 16.3695 
" clip-path="url(#p45c1d06145)" style="fill: none; stroke-dasharray: 1.85,0.8; stroke-dashoffset: 0; stroke: #000000; stroke-opacity: 0.1; stroke-width: 0.5"/>
     </g>
     <g id="line2d_66">
      <g>
       <use xlink:href="#mfb7eb7b9ed" x="406.891789" y="16.3695" style="stroke: #000000; stroke-width: 0.5"/>
      </g>
     </g>
    </g>
    <g id="text_7">
     <!-- Language -->
     <g transform="translate(205.559707 200.126375) scale(0.08 -0.08)">
      <use xlink:href="#Cmr10-4c"/>
      <use xlink:href="#Cmr10-61" x="62.5"/>
      <use xlink:href="#Cmr10-6e" x="112.5"/>
      <use xlink:href="#Cmr10-67" x="168.017578"/>
      <use xlink:href="#Cmr10-75" x="218.017578"/>
      <use xlink:href="#Cmr10-61" x="273.535156"/>
      <use xlink:href="#Cmr10-67" x="323.535156"/>
      <use xlink:href="#Cmr10-65" x="373.535156"/>
     </g>
    </g>
   </g>
   <g id="matplotlib.axis_2">
    <g id="ytick_1">
     <g id="line2d_67">
      <path d="M 26.2025 179.961375 
L 418.350664 179.961375 
" clip-path="url(#p45c1d06145)" style="fill: none; stroke: #000000; stroke-opacity: 0.2; stroke-width: 0.5; stroke-linecap: square"/>
     </g>
     <g id="line2d_68">
      <defs>
       <path id="m459e024da7" d="M 0 0 
L 3 0 
" style="stroke: #000000; stroke-width: 0.5"/>
      </defs>
      <g>
       <use xlink:href="#m459e024da7" x="26.2025" y="179.961375" style="stroke: #000000; stroke-width: 0.5"/>
      </g>
     </g>
     <g id="line2d_69">
      <defs>
       <path id="m87342801e6" d="M 0 0 
L -3 0 
" style="stroke: #000000; stroke-width: 0.5"/>
      </defs>
      <g>
       <use xlink:href="#m87342801e6" x="418.350664" y="179.961375" style="stroke: #000000; stroke-width: 0.5"/>
      </g>
     </g>
     <g id="text_8">
      <!-- $\mathdefault{0}$ -->
      <g transform="translate(18.7025 182.737) scale(0.08 -0.08)">
       <defs>
        <path id="Cmr10-30" d="M 1600 -141 
Q 816 -141 533 504 
Q 250 1150 250 2041 
Q 250 2597 351 3087 
Q 453 3578 754 3920 
Q 1056 4263 1600 4263 
Q 2022 4263 2290 4056 
Q 2559 3850 2700 3523 
Q 2841 3197 2892 2823 
Q 2944 2450 2944 2041 
Q 2944 1491 2842 1011 
Q 2741 531 2444 195 
Q 2147 -141 1600 -141 
z
M 1600 25 
Q 1956 25 2131 390 
Q 2306 756 2347 1200 
Q 2388 1644 2388 2144 
Q 2388 2625 2347 3031 
Q 2306 3438 2132 3767 
Q 1959 4097 1600 4097 
Q 1238 4097 1063 3765 
Q 888 3434 847 3029 
Q 806 2625 806 2144 
Q 806 1788 823 1472 
Q 841 1156 916 820 
Q 991 484 1158 254 
Q 1325 25 1600 25 
z
" transform="scale(0.015625)"/>
       </defs>
       <use xlink:href="#Cmr10-30" transform="translate(0 0.390625)"/>
      </g>
     </g>
    </g>
    <g id="ytick_2">
     <g id="line2d_70">
      <path d="M 26.2025 147.243 
L 418.350664 147.243 
" clip-path="url(#p45c1d06145)" style="fill: none; stroke: #000000; stroke-opacity: 0.2; stroke-width: 0.5; stroke-linecap: square"/>
     </g>
     <g id="line2d_71">
      <g>
       <use xlink:href="#m459e024da7" x="26.2025" y="147.243" style="stroke: #000000; stroke-width: 0.5"/>
      </g>
     </g>
     <g id="line2d_72">
      <g>
       <use xlink:href="#m87342801e6" x="418.350664" y="147.243" style="stroke: #000000; stroke-width: 0.5"/>
      </g>
     </g>
     <g id="text_9">
      <!-- $\mathdefault{2}$ -->
      <g transform="translate(18.7025 150.018625) scale(0.08 -0.08)">
       <defs>
        <path id="Cmr10-32" d="M 319 0 
L 319 172 
Q 319 188 331 206 
L 1325 1306 
Q 1550 1550 1690 1715 
Q 1831 1881 1968 2097 
Q 2106 2313 2186 2536 
Q 2266 2759 2266 3009 
Q 2266 3272 2169 3511 
Q 2072 3750 1880 3894 
Q 1688 4038 1416 4038 
Q 1138 4038 916 3870 
Q 694 3703 603 3438 
Q 628 3444 672 3444 
Q 816 3444 917 3347 
Q 1019 3250 1019 3097 
Q 1019 2950 917 2848 
Q 816 2747 672 2747 
Q 522 2747 420 2851 
Q 319 2956 319 3097 
Q 319 3338 409 3548 
Q 500 3759 670 3923 
Q 841 4088 1055 4175 
Q 1269 4263 1509 4263 
Q 1875 4263 2190 4108 
Q 2506 3953 2690 3670 
Q 2875 3388 2875 3009 
Q 2875 2731 2753 2481 
Q 2631 2231 2440 2026 
Q 2250 1822 1953 1562 
Q 1656 1303 1563 1216 
L 838 519 
L 1453 519 
Q 1906 519 2211 526 
Q 2516 534 2534 550 
Q 2609 631 2688 1141 
L 2875 1141 
L 2694 0 
L 319 0 
z
" transform="scale(0.015625)"/>
       </defs>
       <use xlink:href="#Cmr10-32" transform="translate(0 0.390625)"/>
      </g>
     </g>
    </g>
    <g id="ytick_3">
     <g id="line2d_73">
      <path d="M 26.2025 114.524625 
L 418.350664 114.524625 
" clip-path="url(#p45c1d06145)" style="fill: none; stroke: #000000; stroke-opacity: 0.2; stroke-width: 0.5; stroke-linecap: square"/>
     </g>
     <g id="line2d_74">
      <g>
       <use xlink:href="#m459e024da7" x="26.2025" y="114.524625" style="stroke: #000000; stroke-width: 0.5"/>
      </g>
     </g>
     <g id="line2d_75">
      <g>
       <use xlink:href="#m87342801e6" x="418.350664" y="114.524625" style="stroke: #000000; stroke-width: 0.5"/>
      </g>
     </g>
     <g id="text_10">
      <!-- $\mathdefault{4}$ -->
      <g transform="translate(18.7025 117.30025) scale(0.08 -0.08)">
       <defs>
        <path id="Cmr10-34" d="M 178 1056 
L 178 1281 
L 2156 4231 
Q 2178 4263 2222 4263 
L 2316 4263 
Q 2388 4263 2388 4191 
L 2388 1281 
L 3016 1281 
L 3016 1056 
L 2388 1056 
L 2388 428 
Q 2388 297 2575 261 
Q 2763 225 3009 225 
L 3009 0 
L 1247 0 
L 1247 225 
Q 1494 225 1681 261 
Q 1869 297 1869 428 
L 1869 1056 
L 178 1056 
z
M 391 1281 
L 1906 1281 
L 1906 3547 
L 391 1281 
z
" transform="scale(0.015625)"/>
       </defs>
       <use xlink:href="#Cmr10-34" transform="translate(0 0.390625)"/>
      </g>
     </g>
    </g>
    <g id="ytick_4">
     <g id="line2d_76">
      <path d="M 26.2025 81.80625 
L 418.350664 81.80625 
" clip-path="url(#p45c1d06145)" style="fill: none; stroke: #000000; stroke-opacity: 0.2; stroke-width: 0.5; stroke-linecap: square"/>
     </g>
     <g id="line2d_77">
      <g>
       <use xlink:href="#m459e024da7" x="26.2025" y="81.80625" style="stroke: #000000; stroke-width: 0.5"/>
      </g>
     </g>
     <g id="line2d_78">
      <g>
       <use xlink:href="#m87342801e6" x="418.350664" y="81.80625" style="stroke: #000000; stroke-width: 0.5"/>
      </g>
     </g>
     <g id="text_11">
      <!-- $\mathdefault{6}$ -->
      <g transform="translate(18.7025 84.581875) scale(0.08 -0.08)">
       <defs>
        <path id="Cmr10-36" d="M 1600 -141 
Q 1203 -141 937 70 
Q 672 281 526 617 
Q 381 953 325 1322 
Q 269 1691 269 2069 
Q 269 2575 466 3084 
Q 663 3594 1045 3928 
Q 1428 4263 1953 4263 
Q 2172 4263 2361 4180 
Q 2550 4097 2658 3936 
Q 2766 3775 2766 3547 
Q 2766 3416 2677 3327 
Q 2588 3238 2456 3238 
Q 2331 3238 2240 3328 
Q 2150 3419 2150 3547 
Q 2150 3672 2240 3762 
Q 2331 3853 2456 3853 
L 2491 3853 
Q 2409 3969 2261 4023 
Q 2113 4078 1953 4078 
Q 1759 4078 1595 3993 
Q 1431 3909 1300 3765 
Q 1169 3622 1081 3448 
Q 994 3275 945 3053 
Q 897 2831 884 2637 
Q 872 2444 872 2150 
Q 984 2413 1190 2580 
Q 1397 2747 1656 2747 
Q 1941 2747 2175 2631 
Q 2409 2516 2578 2311 
Q 2747 2106 2836 1843 
Q 2925 1581 2925 1313 
Q 2925 938 2758 598 
Q 2591 259 2287 59 
Q 1984 -141 1600 -141 
z
M 1600 63 
Q 1847 63 1997 175 
Q 2147 288 2217 473 
Q 2288 659 2305 848 
Q 2322 1038 2322 1313 
Q 2322 1675 2287 1931 
Q 2253 2188 2100 2383 
Q 1947 2578 1631 2578 
Q 1372 2578 1205 2403 
Q 1038 2228 961 1961 
Q 884 1694 884 1447 
Q 884 1363 891 1319 
Q 891 1309 889 1303 
Q 888 1297 884 1288 
Q 884 1013 940 731 
Q 997 450 1156 256 
Q 1316 63 1600 63 
z
" transform="scale(0.015625)"/>
       </defs>
       <use xlink:href="#Cmr10-36" transform="translate(0 0.390625)"/>
      </g>
     </g>
    </g>
    <g id="ytick_5">
     <g id="line2d_79">
      <path d="M 26.2025 49.087875 
L 418.350664 49.087875 
" clip-path="url(#p45c1d06145)" style="fill: none; stroke: #000000; stroke-opacity: 0.2; stroke-width: 0.5; stroke-linecap: square"/>
     </g>
     <g id="line2d_80">
      <g>
       <use xlink:href="#m459e024da7" x="26.2025" y="49.087875" style="stroke: #000000; stroke-width: 0.5"/>
      </g>
     </g>
     <g id="line2d_81">
      <g>
       <use xlink:href="#m87342801e6" x="418.350664" y="49.087875" style="stroke: #000000; stroke-width: 0.5"/>
      </g>
     </g>
     <g id="text_12">
      <!-- $\mathdefault{8}$ -->
      <g transform="translate(18.7025 51.8635) scale(0.08 -0.08)">
       <defs>
        <path id="Cmr10-38" d="M 269 972 
Q 269 1356 522 1651 
Q 775 1947 1172 2144 
L 934 2297 
Q 716 2441 578 2680 
Q 441 2919 441 3181 
Q 441 3488 602 3734 
Q 763 3981 1030 4122 
Q 1297 4263 1600 4263 
Q 1884 4263 2148 4147 
Q 2413 4031 2583 3815 
Q 2753 3600 2753 3303 
Q 2753 3088 2651 2903 
Q 2550 2719 2373 2572 
Q 2197 2425 1997 2322 
L 2363 2088 
Q 2616 1922 2770 1653 
Q 2925 1384 2925 1088 
Q 2925 741 2739 456 
Q 2553 172 2247 15 
Q 1941 -141 1600 -141 
Q 1269 -141 961 -6 
Q 653 128 461 383 
Q 269 638 269 972 
z
M 616 972 
Q 616 719 755 509 
Q 894 300 1122 181 
Q 1350 63 1600 63 
Q 1972 63 2275 280 
Q 2578 497 2578 856 
Q 2578 978 2529 1098 
Q 2481 1219 2395 1317 
Q 2309 1416 2203 1478 
L 1344 2034 
Q 1144 1928 976 1765 
Q 809 1603 712 1400 
Q 616 1197 616 972 
z
M 1056 2925 
L 1831 2425 
Q 2100 2581 2272 2803 
Q 2444 3025 2444 3303 
Q 2444 3519 2323 3698 
Q 2203 3878 2009 3978 
Q 1816 4078 1594 4078 
Q 1400 4078 1203 4003 
Q 1006 3928 878 3779 
Q 750 3631 750 3431 
Q 750 3131 1056 2925 
z
" transform="scale(0.015625)"/>
       </defs>
       <use xlink:href="#Cmr10-38" transform="translate(0 0.390625)"/>
      </g>
     </g>
    </g>
    <g id="ytick_6">
     <g id="line2d_82">
      <path d="M 26.2025 16.3695 
L 418.350664 16.3695 
" clip-path="url(#p45c1d06145)" style="fill: none; stroke: #000000; stroke-opacity: 0.2; stroke-width: 0.5; stroke-linecap: square"/>
     </g>
     <g id="line2d_83">
      <g>
       <use xlink:href="#m459e024da7" x="26.2025" y="16.3695" style="stroke: #000000; stroke-width: 0.5"/>
      </g>
     </g>
     <g id="line2d_84">
      <g>
       <use xlink:href="#m87342801e6" x="418.350664" y="16.3695" style="stroke: #000000; stroke-width: 0.5"/>
      </g>
     </g>
     <g id="text_13">
      <!-- $\mathdefault{10}$ -->
      <g transform="translate(14.7025 19.145125) scale(0.08 -0.08)">
       <defs>
        <path id="Cmr10-31" d="M 594 0 
L 594 225 
Q 1394 225 1394 428 
L 1394 3788 
Q 1063 3628 556 3628 
L 556 3853 
Q 1341 3853 1741 4263 
L 1831 4263 
Q 1853 4263 1873 4245 
Q 1894 4228 1894 4206 
L 1894 428 
Q 1894 225 2694 225 
L 2694 0 
L 594 0 
z
" transform="scale(0.015625)"/>
       </defs>
       <use xlink:href="#Cmr10-31" transform="translate(0 0.390625)"/>
       <use xlink:href="#Cmr10-30" transform="translate(50 0.390625)"/>
      </g>
     </g>
    </g>
    <g id="ytick_7">
     <g id="line2d_85">
      <path d="M 26.2025 171.781781 
L 418.350664 171.781781 
" clip-path="url(#p45c1d06145)" style="fill: none; stroke-dasharray: 1.85,0.8; stroke-dashoffset: 0; stroke: #000000; stroke-opacity: 0.1; stroke-width: 0.5"/>
     </g>
     <g id="line2d_86">
      <defs>
       <path id="m052f75fcf0" d="M 0 0 
L 1.5 0 
" style="stroke: #000000; stroke-width: 0.5"/>
      </defs>
      <g>
       <use xlink:href="#m052f75fcf0" x="26.2025" y="171.781781" style="stroke: #000000; stroke-width: 0.5"/>
      </g>
     </g>
     <g id="line2d_87">
      <defs>
       <path id="ma2867ca05d" d="M 0 0 
L -1.5 0 
" style="stroke: #000000; stroke-width: 0.5"/>
      </defs>
      <g>
       <use xlink:href="#ma2867ca05d" x="418.350664" y="171.781781" style="stroke: #000000; stroke-width: 0.5"/>
      </g>
     </g>
    </g>
    <g id="ytick_8">
     <g id="line2d_88">
      <path d="M 26.2025 163.602187 
L 418.350664 163.602187 
" clip-path="url(#p45c1d06145)" style="fill: none; stroke-dasharray: 1.85,0.8; stroke-dashoffset: 0; stroke: #000000; stroke-opacity: 0.1; stroke-width: 0.5"/>
     </g>
     <g id="line2d_89">
      <g>
       <use xlink:href="#m052f75fcf0" x="26.2025" y="163.602187" style="stroke: #000000; stroke-width: 0.5"/>
      </g>
     </g>
     <g id="line2d_90">
      <g>
       <use xlink:href="#ma2867ca05d" x="418.350664" y="163.602187" style="stroke: #000000; stroke-width: 0.5"/>
      </g>
     </g>
    </g>
    <g id="ytick_9">
     <g id="line2d_91">
      <path d="M 26.2025 155.422594 
L 418.350664 155.422594 
" clip-path="url(#p45c1d06145)" style="fill: none; stroke-dasharray: 1.85,0.8; stroke-dashoffset: 0; stroke: #000000; stroke-opacity: 0.1; stroke-width: 0.5"/>
     </g>
     <g id="line2d_92">
      <g>
       <use xlink:href="#m052f75fcf0" x="26.2025" y="155.422594" style="stroke: #000000; stroke-width: 0.5"/>
      </g>
     </g>
     <g id="line2d_93">
      <g>
       <use xlink:href="#ma2867ca05d" x="418.350664" y="155.422594" style="stroke: #000000; stroke-width: 0.5"/>
      </g>
     </g>
    </g>
    <g id="ytick_10">
     <g id="line2d_94">
      <path d="M 26.2025 139.063406 
L 418.350664 139.063406 
" clip-path="url(#p45c1d06145)" style="fill: none; stroke-dasharray: 1.85,0.8; stroke-dashoffset: 0; stroke: #000000; stroke-opacity: 0.1; stroke-width: 0.5"/>
     </g>
     <g id="line2d_95">
      <g>
       <use xlink:href="#m052f75fcf0" x="26.2025" y="139.063406" style="stroke: #000000; stroke-width: 0.5"/>
      </g>
     </g>
     <g id="line2d_96">
      <g>
       <use xlink:href="#ma2867ca05d" x="418.350664" y="139.063406" style="stroke: #000000; stroke-width: 0.5"/>
      </g>
     </g>
    </g>
    <g id="ytick_11">
     <g id="line2d_97">
      <path d="M 26.2025 130.883812 
L 418.350664 130.883812 
" clip-path="url(#p45c1d06145)" style="fill: none; stroke-dasharray: 1.85,0.8; stroke-dashoffset: 0; stroke: #000000; stroke-opacity: 0.1; stroke-width: 0.5"/>
     </g>
     <g id="line2d_98">
      <g>
       <use xlink:href="#m052f75fcf0" x="26.2025" y="130.883812" style="stroke: #000000; stroke-width: 0.5"/>
      </g>
     </g>
     <g id="line2d_99">
      <g>
       <use xlink:href="#ma2867ca05d" x="418.350664" y="130.883812" style="stroke: #000000; stroke-width: 0.5"/>
      </g>
     </g>
    </g>
    <g id="ytick_12">
     <g id="line2d_100">
      <path d="M 26.2025 122.704219 
L 418.350664 122.704219 
" clip-path="url(#p45c1d06145)" style="fill: none; stroke-dasharray: 1.85,0.8; stroke-dashoffset: 0; stroke: #000000; stroke-opacity: 0.1; stroke-width: 0.5"/>
     </g>
     <g id="line2d_101">
      <g>
       <use xlink:href="#m052f75fcf0" x="26.2025" y="122.704219" style="stroke: #000000; stroke-width: 0.5"/>
      </g>
     </g>
     <g id="line2d_102">
      <g>
       <use xlink:href="#ma2867ca05d" x="418.350664" y="122.704219" style="stroke: #000000; stroke-width: 0.5"/>
      </g>
     </g>
    </g>
    <g id="ytick_13">
     <g id="line2d_103">
      <path d="M 26.2025 106.345031 
L 418.350664 106.345031 
" clip-path="url(#p45c1d06145)" style="fill: none; stroke-dasharray: 1.85,0.8; stroke-dashoffset: 0; stroke: #000000; stroke-opacity: 0.1; stroke-width: 0.5"/>
     </g>
     <g id="line2d_104">
      <g>
       <use xlink:href="#m052f75fcf0" x="26.2025" y="106.345031" style="stroke: #000000; stroke-width: 0.5"/>
      </g>
     </g>
     <g id="line2d_105">
      <g>
       <use xlink:href="#ma2867ca05d" x="418.350664" y="106.345031" style="stroke: #000000; stroke-width: 0.5"/>
      </g>
     </g>
    </g>
    <g id="ytick_14">
     <g id="line2d_106">
      <path d="M 26.2025 98.165437 
L 418.350664 98.165437 
" clip-path="url(#p45c1d06145)" style="fill: none; stroke-dasharray: 1.85,0.8; stroke-dashoffset: 0; stroke: #000000; stroke-opacity: 0.1; stroke-width: 0.5"/>
     </g>
     <g id="line2d_107">
      <g>
       <use xlink:href="#m052f75fcf0" x="26.2025" y="98.165437" style="stroke: #000000; stroke-width: 0.5"/>
      </g>
     </g>
     <g id="line2d_108">
      <g>
       <use xlink:href="#ma2867ca05d" x="418.350664" y="98.165437" style="stroke: #000000; stroke-width: 0.5"/>
      </g>
     </g>
    </g>
    <g id="ytick_15">
     <g id="line2d_109">
      <path d="M 26.2025 89.985844 
L 418.350664 89.985844 
" clip-path="url(#p45c1d06145)" style="fill: none; stroke-dasharray: 1.85,0.8; stroke-dashoffset: 0; stroke: #000000; stroke-opacity: 0.1; stroke-width: 0.5"/>
     </g>
     <g id="line2d_110">
      <g>
       <use xlink:href="#m052f75fcf0" x="26.2025" y="89.985844" style="stroke: #000000; stroke-width: 0.5"/>
      </g>
     </g>
     <g id="line2d_111">
      <g>
       <use xlink:href="#ma2867ca05d" x="418.350664" y="89.985844" style="stroke: #000000; stroke-width: 0.5"/>
      </g>
     </g>
    </g>
    <g id="ytick_16">
     <g id="line2d_112">
      <path d="M 26.2025 73.626656 
L 418.350664 73.626656 
" clip-path="url(#p45c1d06145)" style="fill: none; stroke-dasharray: 1.85,0.8; stroke-dashoffset: 0; stroke: #000000; stroke-opacity: 0.1; stroke-width: 0.5"/>
     </g>
     <g id="line2d_113">
      <g>
       <use xlink:href="#m052f75fcf0" x="26.2025" y="73.626656" style="stroke: #000000; stroke-width: 0.5"/>
      </g>
     </g>
     <g id="line2d_114">
      <g>
       <use xlink:href="#ma2867ca05d" x="418.350664" y="73.626656" style="stroke: #000000; stroke-width: 0.5"/>
      </g>
     </g>
    </g>
    <g id="ytick_17">
     <g id="line2d_115">
      <path d="M 26.2025 65.447062 
L 418.350664 65.447062 
" clip-path="url(#p45c1d06145)" style="fill: none; stroke-dasharray: 1.85,0.8; stroke-dashoffset: 0; stroke: #000000; stroke-opacity: 0.1; stroke-width: 0.5"/>
     </g>
     <g id="line2d_116">
      <g>
       <use xlink:href="#m052f75fcf0" x="26.2025" y="65.447062" style="stroke: #000000; stroke-width: 0.5"/>
      </g>
     </g>
     <g id="line2d_117">
      <g>
       <use xlink:href="#ma2867ca05d" x="418.350664" y="65.447062" style="stroke: #000000; stroke-width: 0.5"/>
      </g>
     </g>
    </g>
    <g id="ytick_18">
     <g id="line2d_118">
      <path d="M 26.2025 57.267469 
L 418.350664 57.267469 
" clip-path="url(#p45c1d06145)" style="fill: none; stroke-dasharray: 1.85,0.8; stroke-dashoffset: 0; stroke: #000000; stroke-opacity: 0.1; stroke-width: 0.5"/>
     </g>
     <g id="line2d_119">
      <g>
       <use xlink:href="#m052f75fcf0" x="26.2025" y="57.267469" style="stroke: #000000; stroke-width: 0.5"/>
      </g>
     </g>
     <g id="line2d_120">
      <g>
       <use xlink:href="#ma2867ca05d" x="418.350664" y="57.267469" style="stroke: #000000; stroke-width: 0.5"/>
      </g>
     </g>
    </g>
    <g id="ytick_19">
     <g id="line2d_121">
      <path d="M 26.2025 40.908281 
L 418.350664 40.908281 
" clip-path="url(#p45c1d06145)" style="fill: none; stroke-dasharray: 1.85,0.8; stroke-dashoffset: 0; stroke: #000000; stroke-opacity: 0.1; stroke-width: 0.5"/>
     </g>
     <g id="line2d_122">
      <g>
       <use xlink:href="#m052f75fcf0" x="26.2025" y="40.908281" style="stroke: #000000; stroke-width: 0.5"/>
      </g>
     </g>
     <g id="line2d_123">
      <g>
       <use xlink:href="#ma2867ca05d" x="418.350664" y="40.908281" style="stroke: #000000; stroke-width: 0.5"/>
      </g>
     </g>
    </g>
    <g id="ytick_20">
     <g id="line2d_124">
      <path d="M 26.2025 32.728687 
L 418.350664 32.728687 
" clip-path="url(#p45c1d06145)" style="fill: none; stroke-dasharray: 1.85,0.8; stroke-dashoffset: 0; stroke: #000000; stroke-opacity: 0.1; stroke-width: 0.5"/>
     </g>
     <g id="line2d_125">
      <g>
       <use xlink:href="#m052f75fcf0" x="26.2025" y="32.728687" style="stroke: #000000; stroke-width: 0.5"/>
      </g>
     </g>
     <g id="line2d_126">
      <g>
       <use xlink:href="#ma2867ca05d" x="418.350664" y="32.728687" style="stroke: #000000; stroke-width: 0.5"/>
      </g>
     </g>
    </g>
    <g id="ytick_21">
     <g id="line2d_127">
      <path d="M 26.2025 24.549094 
L 418.350664 24.549094 
" clip-path="url(#p45c1d06145)" style="fill: none; stroke-dasharray: 1.85,0.8; stroke-dashoffset: 0; stroke: #000000; stroke-opacity: 0.1; stroke-width: 0.5"/>
     </g>
     <g id="line2d_128">
      <g>
       <use xlink:href="#m052f75fcf0" x="26.2025" y="24.549094" style="stroke: #000000; stroke-width: 0.5"/>
      </g>
     </g>
     <g id="line2d_129">
      <g>
       <use xlink:href="#ma2867ca05d" x="418.350664" y="24.549094" style="stroke: #000000; stroke-width: 0.5"/>
      </g>
     </g>
    </g>
    <g id="text_14">
     <!-- Mean Loss -->
     <g transform="translate(9.15125 116.810437) rotate(-90) scale(0.08 -0.08)">
      <defs>
       <path id="Cmr10-4d" d="M 225 0 
L 225 225 
Q 884 225 884 603 
L 884 3944 
Q 884 4147 225 4147 
L 225 4372 
L 1434 4372 
Q 1513 4372 1538 4300 
L 2931 678 
L 4325 4300 
Q 4350 4372 4428 4372 
L 5638 4372 
L 5638 4147 
Q 4978 4147 4978 3944 
L 4978 428 
Q 4978 225 5638 225 
L 5638 0 
L 3775 0 
L 3775 225 
Q 4434 225 4434 428 
L 4434 4153 
L 2859 72 
Q 2831 0 2753 0 
Q 2672 0 2644 72 
L 1088 4103 
L 1088 603 
Q 1088 225 1747 225 
L 1747 0 
L 225 0 
z
" transform="scale(0.015625)"/>
       <path id="Cmr10-20" transform="scale(0.015625)"/>
       <path id="Cmr10-6f" d="M 1600 -72 
Q 1216 -72 887 123 
Q 559 319 368 647 
Q 178 975 178 1363 
Q 178 1656 283 1928 
Q 388 2200 583 2414 
Q 778 2628 1037 2748 
Q 1297 2869 1600 2869 
Q 1994 2869 2317 2661 
Q 2641 2453 2828 2104 
Q 3016 1756 3016 1363 
Q 3016 978 2825 648 
Q 2634 319 2307 123 
Q 1981 -72 1600 -72 
z
M 1600 116 
Q 2113 116 2284 487 
Q 2456 859 2456 1434 
Q 2456 1756 2422 1967 
Q 2388 2178 2272 2350 
Q 2200 2456 2089 2536 
Q 1978 2616 1854 2658 
Q 1731 2700 1600 2700 
Q 1400 2700 1220 2609 
Q 1041 2519 922 2350 
Q 803 2169 770 1951 
Q 738 1734 738 1434 
Q 738 1075 800 789 
Q 863 503 1052 309 
Q 1241 116 1600 116 
z
" transform="scale(0.015625)"/>
      </defs>
      <use xlink:href="#Cmr10-4d"/>
      <use xlink:href="#Cmr10-65" x="91.601562"/>
      <use xlink:href="#Cmr10-61" x="135.986328"/>
      <use xlink:href="#Cmr10-6e" x="185.986328"/>
      <use xlink:href="#Cmr10-20" x="241.503906"/>
      <use xlink:href="#Cmr10-4c" x="274.804688"/>
      <use xlink:href="#Cmr10-6f" x="337.304688"/>
      <use xlink:href="#Cmr10-73" x="387.304688"/>
      <use xlink:href="#Cmr10-73" x="426.708984"/>
     </g>
    </g>
   </g>
   <g id="patch_3">
    <path d="M 44.027417 179.961375 
L 53.576479 179.961375 
L 53.576479 94.218095 
L 44.027417 94.218095 
z
" clip-path="url(#p45c1d06145)"/>
   </g>
   <g id="patch_4">
    <path d="M 107.687833 179.961375 
L 117.236895 179.961375 
L 117.236895 100.324206 
L 107.687833 100.324206 
z
" clip-path="url(#p45c1d06145)"/>
   </g>
   <g id="patch_5">
    <path d="M 171.348249 179.961375 
L 180.897311 179.961375 
L 180.897311 98.39071 
L 171.348249 98.39071 
z
" clip-path="url(#p45c1d06145)"/>
   </g>
   <g id="patch_6">
    <path d="M 235.008665 179.961375 
L 244.557728 179.961375 
L 244.557728 98.835361 
L 235.008665 98.835361 
z
" clip-path="url(#p45c1d06145)"/>
   </g>
   <g id="patch_7">
    <path d="M 298.669082 179.961375 
L 308.218144 179.961375 
L 308.218144 108.606715 
L 298.669082 108.606715 
z
" clip-path="url(#p45c1d06145)"/>
   </g>
   <g id="patch_8">
    <path d="M 362.329498 179.961375 
L 371.87856 179.961375 
L 371.87856 64.341042 
L 362.329498 64.341042 
z
" clip-path="url(#p45c1d06145)"/>
   </g>
   <g id="patch_9">
    <path d="M 53.576479 179.961375 
L 63.125541 179.961375 
L 63.125541 90.695141 
L 53.576479 90.695141 
z
" clip-path="url(#p45c1d06145)" style="fill: #808080"/>
   </g>
   <g id="patch_10">
    <path d="M 117.236895 179.961375 
L 126.785958 179.961375 
L 126.785958 100.630988 
L 117.236895 100.630988 
z
" clip-path="url(#p45c1d06145)" style="fill: #808080"/>
   </g>
   <g id="patch_11">
    <path d="M 180.897311 179.961375 
L 190.446374 179.961375 
L 190.446374 79.705507 
L 180.897311 79.705507 
z
" clip-path="url(#p45c1d06145)" style="fill: #808080"/>
   </g>
   <g id="patch_12">
    <path d="M 244.557728 179.961375 
L 254.10679 179.961375 
L 254.10679 80.735614 
L 244.557728 80.735614 
z
" clip-path="url(#p45c1d06145)" style="fill: #808080"/>
   </g>
   <g id="patch_13">
    <path d="M 308.218144 179.961375 
L 317.767206 179.961375 
L 317.767206 86.581175 
L 308.218144 86.581175 
z
" clip-path="url(#p45c1d06145)" style="fill: #808080"/>
   </g>
   <g id="patch_14">
    <path d="M 371.87856 179.961375 
L 381.427623 179.961375 
L 381.427623 88.254354 
L 371.87856 88.254354 
z
" clip-path="url(#p45c1d06145)" style="fill: #808080"/>
   </g>
   <g id="patch_15">
    <path d="M 63.125541 179.961375 
L 72.674604 179.961375 
L 72.674604 62.531812 
L 63.125541 62.531812 
z
" clip-path="url(#p45c1d06145)" style="fill: #4682b4"/>
   </g>
   <g id="patch_16">
    <path d="M 126.785958 179.961375 
L 136.33502 179.961375 
L 136.33502 83.656155 
L 126.785958 83.656155 
z
" clip-path="url(#p45c1d06145)" style="fill: #4682b4"/>
   </g>
   <g id="patch_17">
    <path d="M 190.446374 179.961375 
L 199.995436 179.961375 
L 199.995436 73.049727 
L 190.446374 73.049727 
z
" clip-path="url(#p45c1d06145)" style="fill: #4682b4"/>
   </g>
   <g id="patch_18">
    <path d="M 254.10679 179.961375 
L 263.655853 179.961375 
L 263.655853 72.260627 
L 254.10679 72.260627 
z
" clip-path="url(#p45c1d06145)" style="fill: #4682b4"/>
   </g>
   <g id="patch_19">
    <path d="M 317.767206 179.961375 
L 327.316269 179.961375 
L 327.316269 81.181619 
L 317.767206 81.181619 
z
" clip-path="url(#p45c1d06145)" style="fill: #4682b4"/>
   </g>
   <g id="patch_20">
    <path d="M 381.427623 179.961375 
L 390.976685 179.961375 
L 390.976685 60.809971 
L 381.427623 60.809971 
z
" clip-path="url(#p45c1d06145)" style="fill: #4682b4"/>
   </g>
   <g id="patch_21">
    <path d="M 72.674604 179.961375 
L 82.223666 179.961375 
L 82.223666 77.731758 
L 72.674604 77.731758 
z
" clip-path="url(#p45c1d06145)" style="fill: #228b22; opacity: 0.7"/>
   </g>
   <g id="patch_22">
    <path d="M 136.33502 179.961375 
L 145.884083 179.961375 
L 145.884083 89.018639 
L 136.33502 89.018639 
z
" clip-path="url(#p45c1d06145)" style="fill: #228b22; opacity: 0.7"/>
   </g>
   <g id="patch_23">
    <path d="M 199.995436 179.961375 
L 209.544499 179.961375 
L 209.544499 62.187499 
L 199.995436 62.187499 
z
" clip-path="url(#p45c1d06145)" style="fill: #228b22; opacity: 0.7"/>
   </g>
   <g id="patch_24">
    <path d="M 263.655853 179.961375 
L 273.204915 179.961375 
L 273.204915 66.986891 
L 263.655853 66.986891 
z
" clip-path="url(#p45c1d06145)" style="fill: #228b22; opacity: 0.7"/>
   </g>
   <g id="patch_25">
    <path d="M 327.316269 179.961375 
L 336.865331 179.961375 
L 336.865331 74.567666 
L 327.316269 74.567666 
z
" clip-path="url(#p45c1d06145)" style="fill: #228b22; opacity: 0.7"/>
   </g>
   <g id="patch_26">
    <path d="M 390.976685 179.961375 
L 400.525748 179.961375 
L 400.525748 71.953709 
L 390.976685 71.953709 
z
" clip-path="url(#p45c1d06145)" style="fill: #228b22; opacity: 0.7"/>
   </g>
   <g id="patch_27">
    <path d="M 26.2025 179.961375 
L 26.2025 16.3695 
" style="fill: none; stroke: #000000; stroke-width: 0.5; stroke-linejoin: miter; stroke-linecap: square"/>
   </g>
   <g id="patch_28">
    <path d="M 418.350664 179.961375 
L 418.350664 16.3695 
" style="fill: none; stroke: #000000; stroke-width: 0.5; stroke-linejoin: miter; stroke-linecap: square"/>
   </g>
   <g id="patch_29">
    <path d="M 26.2025 179.961375 
L 418.350664 179.961375 
" style="fill: none; stroke: #000000; stroke-width: 0.5; stroke-linejoin: miter; stroke-linecap: square"/>
   </g>
   <g id="patch_30">
    <path d="M 26.2025 16.3695 
L 418.350664 16.3695 
" style="fill: none; stroke: #000000; stroke-width: 0.5; stroke-linejoin: miter; stroke-linecap: square"/>
   </g>
   <g id="text_15">
    <!-- 5.24 -->
    <g transform="translate(43.471323 90.054658) scale(0.06 -0.06)">
     <defs>
      <path id="Cmr10-35" d="M 556 728 
Q 622 541 758 387 
Q 894 234 1080 148 
Q 1266 63 1466 63 
Q 1928 63 2103 422 
Q 2278 781 2278 1294 
Q 2278 1516 2270 1667 
Q 2263 1819 2228 1959 
Q 2169 2184 2020 2353 
Q 1872 2522 1656 2522 
Q 1441 2522 1286 2456 
Q 1131 2391 1034 2303 
Q 938 2216 863 2119 
Q 788 2022 769 2016 
L 697 2016 
Q 681 2016 657 2036 
Q 634 2056 634 2075 
L 634 4213 
Q 634 4228 654 4245 
Q 675 4263 697 4263 
L 716 4263 
Q 1147 4056 1631 4056 
Q 2106 4056 2547 4263 
L 2566 4263 
Q 2588 4263 2606 4247 
Q 2625 4231 2625 4213 
L 2625 4153 
Q 2625 4122 2613 4122 
Q 2394 3831 2064 3668 
Q 1734 3506 1381 3506 
Q 1125 3506 856 3578 
L 856 2369 
Q 1069 2541 1236 2614 
Q 1403 2688 1663 2688 
Q 2016 2688 2295 2484 
Q 2575 2281 2725 1954 
Q 2875 1628 2875 1288 
Q 2875 903 2686 575 
Q 2497 247 2172 53 
Q 1847 -141 1466 -141 
Q 1150 -141 886 21 
Q 622 184 470 459 
Q 319 734 319 1044 
Q 319 1188 412 1278 
Q 506 1369 647 1369 
Q 788 1369 883 1276 
Q 978 1184 978 1044 
Q 978 906 883 811 
Q 788 716 647 716 
Q 625 716 597 720 
Q 569 725 556 728 
z
" transform="scale(0.015625)"/>
      <path id="Cmr10-2e" d="M 538 353 
Q 538 497 644 600 
Q 750 703 891 703 
Q 978 703 1062 656 
Q 1147 609 1194 525 
Q 1241 441 1241 353 
Q 1241 213 1137 106 
Q 1034 0 891 0 
Q 750 0 644 106 
Q 538 213 538 353 
z
" transform="scale(0.015625)"/>
     </defs>
     <use xlink:href="#Cmr10-35"/>
     <use xlink:href="#Cmr10-2e" x="50"/>
     <use xlink:href="#Cmr10-32" x="77.685547"/>
     <use xlink:href="#Cmr10-34" x="127.685547"/>
    </g>
   </g>
   <g id="text_16">
    <!-- 4.87 -->
    <g transform="translate(107.131739 96.160769) scale(0.06 -0.06)">
     <defs>
      <path id="Cmr10-37" d="M 1113 166 
Q 1113 522 1175 862 
Q 1238 1203 1358 1536 
Q 1478 1869 1648 2189 
Q 1819 2509 2022 2791 
L 2606 3603 
L 1875 3603 
Q 738 3603 703 3572 
Q 619 3469 544 2981 
L 359 2981 
L 569 4325 
L 756 4325 
L 756 4306 
Q 756 4191 1147 4156 
Q 1538 4122 1913 4122 
L 3103 4122 
L 3103 3956 
Q 3103 3950 3101 3947 
Q 3100 3944 3097 3938 
L 2216 2700 
Q 1891 2219 1809 1631 
Q 1728 1044 1728 166 
Q 1728 41 1637 -50 
Q 1547 -141 1422 -141 
Q 1294 -141 1203 -50 
Q 1113 41 1113 166 
z
" transform="scale(0.015625)"/>
     </defs>
     <use xlink:href="#Cmr10-34"/>
     <use xlink:href="#Cmr10-2e" x="50"/>
     <use xlink:href="#Cmr10-38" x="77.685547"/>
     <use xlink:href="#Cmr10-37" x="127.685547"/>
    </g>
   </g>
   <g id="text_17">
    <!-- 4.99 -->
    <g transform="translate(170.792155 94.227272) scale(0.06 -0.06)">
     <defs>
      <path id="Cmr10-39" d="M 722 269 
Q 897 63 1331 63 
Q 1575 63 1786 228 
Q 1997 394 2113 634 
Q 2247 906 2284 1214 
Q 2322 1522 2322 1978 
Q 2213 1719 2008 1553 
Q 1803 1388 1538 1388 
Q 1166 1388 873 1589 
Q 581 1791 425 2120 
Q 269 2450 269 2822 
Q 269 3206 444 3539 
Q 619 3872 928 4067 
Q 1238 4263 1631 4263 
Q 2019 4263 2280 4052 
Q 2541 3841 2678 3508 
Q 2816 3175 2870 2803 
Q 2925 2431 2925 2069 
Q 2925 1575 2744 1061 
Q 2563 547 2202 203 
Q 1841 -141 1331 -141 
Q 953 -141 690 37 
Q 428 216 428 575 
Q 428 706 517 795 
Q 606 884 738 884 
Q 866 884 955 795 
Q 1044 706 1044 575 
Q 1044 450 953 359 
Q 863 269 738 269 
L 722 269 
z
M 1563 1556 
Q 1825 1556 1992 1732 
Q 2159 1909 2234 2171 
Q 2309 2434 2309 2694 
L 2309 2816 
L 2309 2841 
Q 2309 3322 2168 3700 
Q 2028 4078 1631 4078 
Q 1378 4078 1220 3967 
Q 1063 3856 988 3672 
Q 913 3488 892 3278 
Q 872 3069 872 2822 
Q 872 2459 906 2203 
Q 941 1947 1094 1751 
Q 1247 1556 1563 1556 
z
" transform="scale(0.015625)"/>
     </defs>
     <use xlink:href="#Cmr10-34"/>
     <use xlink:href="#Cmr10-2e" x="50"/>
     <use xlink:href="#Cmr10-39" x="77.685547"/>
     <use xlink:href="#Cmr10-39" x="127.685547"/>
    </g>
   </g>
   <g id="text_18">
    <!-- 4.96 -->
    <g transform="translate(234.452571 94.671923) scale(0.06 -0.06)">
     <use xlink:href="#Cmr10-34"/>
     <use xlink:href="#Cmr10-2e" x="50"/>
     <use xlink:href="#Cmr10-39" x="77.685547"/>
     <use xlink:href="#Cmr10-36" x="127.685547"/>
    </g>
   </g>
   <g id="text_19">
    <!-- 4.36 -->
    <g transform="translate(298.112988 104.443277) scale(0.06 -0.06)">
     <defs>
      <path id="Cmr10-33" d="M 609 494 
Q 759 275 1012 169 
Q 1266 63 1556 63 
Q 1928 63 2084 380 
Q 2241 697 2241 1100 
Q 2241 1281 2208 1462 
Q 2175 1644 2097 1800 
Q 2019 1956 1883 2050 
Q 1747 2144 1550 2144 
L 1125 2144 
Q 1069 2144 1069 2203 
L 1069 2259 
Q 1069 2309 1125 2309 
L 1478 2338 
Q 1703 2338 1851 2506 
Q 2000 2675 2069 2917 
Q 2138 3159 2138 3378 
Q 2138 3684 1994 3881 
Q 1850 4078 1556 4078 
Q 1313 4078 1091 3986 
Q 869 3894 738 3706 
Q 750 3709 759 3711 
Q 769 3713 781 3713 
Q 925 3713 1022 3613 
Q 1119 3513 1119 3372 
Q 1119 3234 1022 3134 
Q 925 3034 781 3034 
Q 641 3034 541 3134 
Q 441 3234 441 3372 
Q 441 3647 606 3850 
Q 772 4053 1033 4158 
Q 1294 4263 1556 4263 
Q 1750 4263 1965 4205 
Q 2181 4147 2356 4039 
Q 2531 3931 2642 3762 
Q 2753 3594 2753 3378 
Q 2753 3109 2633 2881 
Q 2513 2653 2303 2487 
Q 2094 2322 1844 2241 
Q 2122 2188 2372 2031 
Q 2622 1875 2773 1631 
Q 2925 1388 2925 1106 
Q 2925 753 2731 467 
Q 2538 181 2222 20 
Q 1906 -141 1556 -141 
Q 1256 -141 954 -26 
Q 653 88 461 316 
Q 269 544 269 863 
Q 269 1022 375 1128 
Q 481 1234 641 1234 
Q 744 1234 830 1186 
Q 916 1138 964 1050 
Q 1013 963 1013 863 
Q 1013 706 903 600 
Q 794 494 641 494 
L 609 494 
z
" transform="scale(0.015625)"/>
     </defs>
     <use xlink:href="#Cmr10-34"/>
     <use xlink:href="#Cmr10-2e" x="50"/>
     <use xlink:href="#Cmr10-33" x="77.685547"/>
     <use xlink:href="#Cmr10-36" x="127.685547"/>
    </g>
   </g>
   <g id="text_20">
    <!-- 7.07 -->
    <g transform="translate(361.773404 60.177605) scale(0.06 -0.06)">
     <use xlink:href="#Cmr10-37"/>
     <use xlink:href="#Cmr10-2e" x="50"/>
     <use xlink:href="#Cmr10-30" x="77.685547"/>
     <use xlink:href="#Cmr10-37" x="127.685547"/>
    </g>
   </g>
   <g id="text_21">
    <!-- 5.46 -->
    <g transform="translate(53.020385 86.531704) scale(0.06 -0.06)">
     <use xlink:href="#Cmr10-35"/>
     <use xlink:href="#Cmr10-2e" x="50"/>
     <use xlink:href="#Cmr10-34" x="77.685547"/>
     <use xlink:href="#Cmr10-36" x="127.685547"/>
    </g>
   </g>
   <g id="text_22">
    <!-- 4.85 -->
    <g transform="translate(116.680801 96.467551) scale(0.06 -0.06)">
     <use xlink:href="#Cmr10-34"/>
     <use xlink:href="#Cmr10-2e" x="50"/>
     <use xlink:href="#Cmr10-38" x="77.685547"/>
     <use xlink:href="#Cmr10-35" x="127.685547"/>
    </g>
   </g>
   <g id="text_23">
    <!-- 6.13 -->
    <g transform="translate(180.341218 75.542069) scale(0.06 -0.06)">
     <use xlink:href="#Cmr10-36"/>
     <use xlink:href="#Cmr10-2e" x="50"/>
     <use xlink:href="#Cmr10-31" x="77.685547"/>
     <use xlink:href="#Cmr10-33" x="127.685547"/>
    </g>
   </g>
   <g id="text_24">
    <!-- 6.07 -->
    <g transform="translate(244.001634 76.572177) scale(0.06 -0.06)">
     <use xlink:href="#Cmr10-36"/>
     <use xlink:href="#Cmr10-2e" x="50"/>
     <use xlink:href="#Cmr10-30" x="77.685547"/>
     <use xlink:href="#Cmr10-37" x="127.685547"/>
    </g>
   </g>
   <g id="text_25">
    <!-- 5.71 -->
    <g transform="translate(307.66205 82.417737) scale(0.06 -0.06)">
     <use xlink:href="#Cmr10-35"/>
     <use xlink:href="#Cmr10-2e" x="50"/>
     <use xlink:href="#Cmr10-37" x="77.685547"/>
     <use xlink:href="#Cmr10-31" x="127.685547"/>
    </g>
   </g>
   <g id="text_26">
    <!-- 5.61 -->
    <g transform="translate(371.322466 84.090917) scale(0.06 -0.06)">
     <use xlink:href="#Cmr10-35"/>
     <use xlink:href="#Cmr10-2e" x="50"/>
     <use xlink:href="#Cmr10-36" x="77.685547"/>
     <use xlink:href="#Cmr10-31" x="127.685547"/>
    </g>
   </g>
   <g id="text_27">
    <!-- 7.18 -->
    <g transform="translate(62.569448 58.368375) scale(0.06 -0.06)">
     <use xlink:href="#Cmr10-37"/>
     <use xlink:href="#Cmr10-2e" x="50"/>
     <use xlink:href="#Cmr10-31" x="77.685547"/>
     <use xlink:href="#Cmr10-38" x="127.685547"/>
    </g>
   </g>
   <g id="text_28">
    <!-- 5.89 -->
    <g transform="translate(126.229864 79.492718) scale(0.06 -0.06)">
     <use xlink:href="#Cmr10-35"/>
     <use xlink:href="#Cmr10-2e" x="50"/>
     <use xlink:href="#Cmr10-38" x="77.685547"/>
     <use xlink:href="#Cmr10-39" x="127.685547"/>
    </g>
   </g>
   <g id="text_29">
    <!-- 6.54 -->
    <g transform="translate(189.89028 68.886289) scale(0.06 -0.06)">
     <use xlink:href="#Cmr10-36"/>
     <use xlink:href="#Cmr10-2e" x="50"/>
     <use xlink:href="#Cmr10-35" x="77.685547"/>
     <use xlink:href="#Cmr10-34" x="127.685547"/>
    </g>
   </g>
   <g id="text_30">
    <!-- 6.58 -->
    <g transform="translate(253.550696 68.097189) scale(0.06 -0.06)">
     <use xlink:href="#Cmr10-36"/>
     <use xlink:href="#Cmr10-2e" x="50"/>
     <use xlink:href="#Cmr10-35" x="77.685547"/>
     <use xlink:href="#Cmr10-38" x="127.685547"/>
    </g>
   </g>
   <g id="text_31">
    <!-- 6.04 -->
    <g transform="translate(317.211113 77.018182) scale(0.06 -0.06)">
     <use xlink:href="#Cmr10-36"/>
     <use xlink:href="#Cmr10-2e" x="50"/>
     <use xlink:href="#Cmr10-30" x="77.685547"/>
     <use xlink:href="#Cmr10-34" x="127.685547"/>
    </g>
   </g>
   <g id="text_32">
    <!-- 7.28 -->
    <g transform="translate(380.871529 56.646533) scale(0.06 -0.06)">
     <use xlink:href="#Cmr10-37"/>
     <use xlink:href="#Cmr10-2e" x="50"/>
     <use xlink:href="#Cmr10-32" x="77.685547"/>
     <use xlink:href="#Cmr10-38" x="127.685547"/>
    </g>
   </g>
   <g id="text_33">
    <!-- 6.25 -->
    <g transform="translate(72.11851 73.568321) scale(0.06 -0.06)">
     <use xlink:href="#Cmr10-36"/>
     <use xlink:href="#Cmr10-2e" x="50"/>
     <use xlink:href="#Cmr10-32" x="77.685547"/>
     <use xlink:href="#Cmr10-35" x="127.685547"/>
    </g>
   </g>
   <g id="text_34">
    <!-- 5.56 -->
    <g transform="translate(135.778926 84.855201) scale(0.06 -0.06)">
     <use xlink:href="#Cmr10-35"/>
     <use xlink:href="#Cmr10-2e" x="50"/>
     <use xlink:href="#Cmr10-35" x="77.685547"/>
     <use xlink:href="#Cmr10-36" x="127.685547"/>
    </g>
   </g>
   <g id="text_35">
    <!-- 7.2 -->
    <g transform="translate(200.939343 58.024061) scale(0.06 -0.06)">
     <use xlink:href="#Cmr10-37"/>
     <use xlink:href="#Cmr10-2e" x="50"/>
     <use xlink:href="#Cmr10-32" x="77.685547"/>
    </g>
   </g>
   <g id="text_36">
    <!-- 6.91 -->
    <g transform="translate(263.099759 62.823454) scale(0.06 -0.06)">
     <use xlink:href="#Cmr10-36"/>
     <use xlink:href="#Cmr10-2e" x="50"/>
     <use xlink:href="#Cmr10-39" x="77.685547"/>
     <use xlink:href="#Cmr10-31" x="127.685547"/>
    </g>
   </g>
   <g id="text_37">
    <!-- 6.44 -->
    <g transform="translate(326.760175 70.404229) scale(0.06 -0.06)">
     <use xlink:href="#Cmr10-36"/>
     <use xlink:href="#Cmr10-2e" x="50"/>
     <use xlink:href="#Cmr10-34" x="77.685547"/>
     <use xlink:href="#Cmr10-34" x="127.685547"/>
    </g>
   </g>
   <g id="text_38">
    <!-- 6.6 -->
    <g transform="translate(391.920591 67.790272) scale(0.06 -0.06)">
     <use xlink:href="#Cmr10-36"/>
     <use xlink:href="#Cmr10-2e" x="50"/>
     <use xlink:href="#Cmr10-36" x="77.685547"/>
    </g>
   </g>
   <g id="text_39">
    <!-- Original XGLM-564M vs Fine-tuning Methods by Mean Language Modeling Loss -->
    <g transform="translate(50.661582 10.3695) scale(0.096 -0.096)">
     <defs>
      <path id="Cmr10-4f" d="M 2491 -141 
Q 1881 -141 1395 182 
Q 909 506 634 1042 
Q 359 1578 359 2169 
Q 359 2606 517 3034 
Q 675 3463 958 3794 
Q 1241 4125 1637 4319 
Q 2034 4513 2491 4513 
Q 2944 4513 3342 4317 
Q 3741 4122 4025 3787 
Q 4309 3453 4462 3037 
Q 4616 2622 4616 2169 
Q 4616 1578 4341 1042 
Q 4066 506 3578 182 
Q 3091 -141 2491 -141 
z
M 1428 691 
Q 1616 397 1891 223 
Q 2166 50 2491 50 
Q 2700 50 2901 134 
Q 3103 219 3267 366 
Q 3431 513 3547 691 
Q 3928 1266 3928 2272 
Q 3928 3194 3547 3731 
Q 3359 4000 3079 4162 
Q 2800 4325 2491 4325 
Q 2178 4325 1897 4162 
Q 1616 4000 1428 3731 
Q 1278 3522 1195 3286 
Q 1113 3050 1078 2797 
Q 1044 2544 1044 2272 
Q 1044 1981 1076 1704 
Q 1109 1428 1198 1162 
Q 1288 897 1428 691 
z
" transform="scale(0.015625)"/>
      <path id="Cmr10-69" d="M 197 0 
L 197 225 
Q 416 225 556 259 
Q 697 294 697 428 
L 697 2175 
Q 697 2422 601 2478 
Q 506 2534 225 2534 
L 225 2759 
L 1147 2828 
L 1147 428 
Q 1147 294 1269 259 
Q 1391 225 1594 225 
L 1594 0 
L 197 0 
z
M 469 3928 
Q 469 4069 575 4175 
Q 681 4281 819 4281 
Q 909 4281 993 4234 
Q 1078 4188 1125 4103 
Q 1172 4019 1172 3928 
Q 1172 3791 1065 3684 
Q 959 3578 819 3578 
Q 681 3578 575 3684 
Q 469 3791 469 3928 
z
" transform="scale(0.015625)"/>
      <path id="Cmr10-58" d="M 147 0 
L 147 225 
Q 797 225 1056 588 
L 2119 2169 
L 941 3963 
Q 841 4081 670 4114 
Q 500 4147 238 4147 
L 238 4372 
L 2028 4372 
L 2028 4147 
Q 1913 4147 1763 4101 
Q 1613 4056 1613 3975 
Q 1613 3963 1619 3950 
L 2456 2675 
L 3194 3775 
Q 3219 3831 3219 3866 
Q 3219 3997 3089 4072 
Q 2959 4147 2816 4147 
L 2816 4372 
L 4378 4372 
L 4378 4147 
Q 3728 4147 3469 3781 
L 2591 2472 
L 3944 409 
Q 4053 288 4220 256 
Q 4388 225 4647 225 
L 4647 0 
L 2853 0 
L 2853 225 
Q 2956 225 3114 270 
Q 3272 316 3272 397 
Q 3272 416 3263 422 
L 2253 1966 
L 1331 594 
Q 1313 556 1313 506 
Q 1313 375 1441 300 
Q 1569 225 1709 225 
L 1709 0 
L 147 0 
z
" transform="scale(0.015625)"/>
      <path id="Cmr10-47" d="M 1472 684 
Q 1703 403 2036 243 
Q 2369 84 2731 84 
Q 3088 84 3378 265 
Q 3669 447 3669 781 
L 3669 1319 
Q 3669 1522 2869 1522 
L 2869 1747 
L 4703 1747 
L 4703 1522 
Q 4500 1522 4381 1487 
Q 4263 1453 4263 1319 
L 4263 56 
Q 4263 34 4245 17 
Q 4228 0 4206 0 
Q 4147 0 4008 140 
Q 3869 281 3788 391 
Q 3631 122 3297 -9 
Q 2963 -141 2597 -141 
Q 1975 -141 1464 179 
Q 953 500 656 1036 
Q 359 1572 359 2188 
Q 359 2641 531 3069 
Q 703 3497 1011 3822 
Q 1319 4147 1728 4330 
Q 2138 4513 2597 4513 
Q 2928 4513 3223 4370 
Q 3519 4228 3750 3969 
L 4122 4494 
Q 4159 4513 4166 4513 
L 4213 4513 
Q 4231 4513 4247 4497 
Q 4263 4481 4263 4459 
L 4263 2731 
Q 4263 2675 4213 2675 
L 4097 2675 
Q 4038 2675 4038 2731 
Q 4038 2916 3964 3144 
Q 3891 3372 3777 3576 
Q 3663 3781 3513 3938 
Q 3153 4288 2688 4288 
Q 2331 4288 2006 4128 
Q 1681 3969 1459 3688 
Q 1225 3388 1134 3005 
Q 1044 2622 1044 2188 
Q 1044 1206 1472 684 
z
" transform="scale(0.015625)"/>
      <path id="Cmr10-2d" d="M 72 1184 
L 72 1581 
L 1766 1581 
L 1766 1184 
L 72 1184 
z
" transform="scale(0.015625)"/>
      <path id="Cmr10-76" d="M 1563 0 
L 628 2350 
Q 569 2469 445 2501 
Q 322 2534 122 2534 
L 122 2759 
L 1466 2759 
L 1466 2534 
Q 1106 2534 1106 2381 
Q 1106 2356 1113 2344 
L 1831 538 
L 2478 2169 
Q 2497 2219 2497 2272 
Q 2497 2394 2405 2464 
Q 2313 2534 2188 2534 
L 2188 2759 
L 3250 2759 
L 3250 2534 
Q 3053 2534 2904 2443 
Q 2756 2353 2675 2175 
L 1813 0 
Q 1788 -72 1709 -72 
L 1663 -72 
Q 1584 -72 1563 0 
z
" transform="scale(0.015625)"/>
      <path id="Cmr10-46" d="M 197 0 
L 197 225 
Q 856 225 856 428 
L 856 3944 
Q 856 4147 197 4147 
L 197 4372 
L 3725 4372 
L 3903 2906 
L 3719 2906 
Q 3675 3309 3601 3542 
Q 3528 3775 3387 3908 
Q 3247 4041 3011 4094 
Q 2775 4147 2363 4147 
L 1778 4147 
Q 1663 4147 1598 4137 
Q 1534 4128 1493 4083 
Q 1453 4038 1453 3944 
L 1453 2297 
L 1906 2297 
Q 2234 2297 2387 2355 
Q 2541 2413 2598 2566 
Q 2656 2719 2656 3047 
L 2841 3047 
L 2841 1325 
L 2656 1325 
Q 2656 1653 2598 1806 
Q 2541 1959 2387 2017 
Q 2234 2075 1906 2075 
L 1453 2075 
L 1453 428 
Q 1453 225 2272 225 
L 2272 0 
L 197 0 
z
" transform="scale(0.015625)"/>
      <path id="Cmr10-68" d="M 191 0 
L 191 225 
Q 409 225 550 259 
Q 691 294 691 428 
L 691 3788 
Q 691 3959 639 4036 
Q 588 4113 491 4130 
Q 394 4147 191 4147 
L 191 4372 
L 1141 4441 
L 1141 2241 
Q 1275 2506 1515 2667 
Q 1756 2828 2047 2828 
Q 2491 2828 2714 2615 
Q 2938 2403 2938 1966 
L 2938 428 
Q 2938 294 3078 259 
Q 3219 225 3438 225 
L 3438 0 
L 1972 0 
L 1972 225 
Q 2191 225 2331 259 
Q 2472 294 2472 428 
L 2472 1947 
Q 2472 2259 2381 2461 
Q 2291 2663 2009 2663 
Q 1638 2663 1398 2366 
Q 1159 2069 1159 1691 
L 1159 428 
Q 1159 294 1300 259 
Q 1441 225 1656 225 
L 1656 0 
L 191 0 
z
" transform="scale(0.015625)"/>
     </defs>
     <use xlink:href="#Cmr10-4f"/>
     <use xlink:href="#Cmr10-72" x="77.685547"/>
     <use xlink:href="#Cmr10-69" x="116.796875"/>
     <use xlink:href="#Cmr10-67" x="144.482422"/>
     <use xlink:href="#Cmr10-69" x="194.482422"/>
     <use xlink:href="#Cmr10-6e" x="222.167969"/>
     <use xlink:href="#Cmr10-61" x="277.685547"/>
     <use xlink:href="#Cmr10-6c" x="327.685547"/>
     <use xlink:href="#Cmr10-20" x="355.371094"/>
     <use xlink:href="#Cmr10-58" x="388.671875"/>
     <use xlink:href="#Cmr10-47" x="463.671875"/>
     <use xlink:href="#Cmr10-4c" x="542.089844"/>
     <use xlink:href="#Cmr10-4d" x="604.589844"/>
     <use xlink:href="#Cmr10-2d" x="696.191406"/>
     <use xlink:href="#Cmr10-35" x="729.492188"/>
     <use xlink:href="#Cmr10-36" x="779.492188"/>
     <use xlink:href="#Cmr10-34" x="829.492188"/>
     <use xlink:href="#Cmr10-4d" x="879.492188"/>
     <use xlink:href="#Cmr10-20" x="971.09375"/>
     <use xlink:href="#Cmr10-76" x="1004.394531"/>
     <use xlink:href="#Cmr10-73" x="1057.080078"/>
     <use xlink:href="#Cmr10-20" x="1096.484375"/>
     <use xlink:href="#Cmr10-46" x="1129.785156"/>
     <use xlink:href="#Cmr10-69" x="1194.970703"/>
     <use xlink:href="#Cmr10-6e" x="1222.65625"/>
     <use xlink:href="#Cmr10-65" x="1278.173828"/>
     <use xlink:href="#Cmr10-2d" x="1322.558594"/>
     <use xlink:href="#Cmr10-74" x="1355.859375"/>
     <use xlink:href="#Cmr10-75" x="1394.677734"/>
     <use xlink:href="#Cmr10-6e" x="1450.195312"/>
     <use xlink:href="#Cmr10-69" x="1505.712891"/>
     <use xlink:href="#Cmr10-6e" x="1533.398438"/>
     <use xlink:href="#Cmr10-67" x="1588.916016"/>
     <use xlink:href="#Cmr10-20" x="1638.916016"/>
     <use xlink:href="#Cmr10-4d" x="1672.216797"/>
     <use xlink:href="#Cmr10-65" x="1763.818359"/>
     <use xlink:href="#Cmr10-74" x="1808.203125"/>
     <use xlink:href="#Cmr10-68" x="1847.021484"/>
     <use xlink:href="#Cmr10-6f" x="1902.539062"/>
     <use xlink:href="#Cmr10-64" x="1952.539062"/>
     <use xlink:href="#Cmr10-73" x="2008.056641"/>
     <use xlink:href="#Cmr10-20" x="2047.460938"/>
     <use xlink:href="#Cmr10-62" x="2080.761719"/>
     <use xlink:href="#Cmr10-79" x="2136.279297"/>
     <use xlink:href="#Cmr10-20" x="2188.964844"/>
     <use xlink:href="#Cmr10-4d" x="2222.265625"/>
     <use xlink:href="#Cmr10-65" x="2313.867188"/>
     <use xlink:href="#Cmr10-61" x="2358.251953"/>
     <use xlink:href="#Cmr10-6e" x="2408.251953"/>
     <use xlink:href="#Cmr10-20" x="2463.769531"/>
     <use xlink:href="#Cmr10-4c" x="2497.070312"/>
     <use xlink:href="#Cmr10-61" x="2559.570312"/>
     <use xlink:href="#Cmr10-6e" x="2609.570312"/>
     <use xlink:href="#Cmr10-67" x="2665.087891"/>
     <use xlink:href="#Cmr10-75" x="2715.087891"/>
     <use xlink:href="#Cmr10-61" x="2770.605469"/>
     <use xlink:href="#Cmr10-67" x="2820.605469"/>
     <use xlink:href="#Cmr10-65" x="2870.605469"/>
     <use xlink:href="#Cmr10-20" x="2914.990234"/>
     <use xlink:href="#Cmr10-4d" x="2948.291016"/>
     <use xlink:href="#Cmr10-6f" x="3039.892578"/>
     <use xlink:href="#Cmr10-64" x="3089.892578"/>
     <use xlink:href="#Cmr10-65" x="3145.410156"/>
     <use xlink:href="#Cmr10-6c" x="3189.794922"/>
     <use xlink:href="#Cmr10-69" x="3217.480469"/>
     <use xlink:href="#Cmr10-6e" x="3245.166016"/>
     <use xlink:href="#Cmr10-67" x="3300.683594"/>
     <use xlink:href="#Cmr10-20" x="3350.683594"/>
     <use xlink:href="#Cmr10-4c" x="3383.984375"/>
     <use xlink:href="#Cmr10-6f" x="3446.484375"/>
     <use xlink:href="#Cmr10-73" x="3496.484375"/>
     <use xlink:href="#Cmr10-73" x="3535.888672"/>
    </g>
   </g>
   <g id="legend_1">
    <g id="patch_31">
     <path d="M 358.720664 175.961375 
L 412.750664 175.961375 
Q 414.350664 175.961375 414.350664 174.361375 
L 414.350664 130.417625 
Q 414.350664 128.817625 412.750664 128.817625 
L 358.720664 128.817625 
Q 357.120664 128.817625 357.120664 130.417625 
L 357.120664 174.361375 
Q 357.120664 175.961375 358.720664 175.961375 
z
" style="fill: #ffffff; stroke: #cccccc; stroke-linejoin: miter"/>
    </g>
    <g id="patch_32">
     <path d="M 360.320664 137.658875 
L 376.320664 137.658875 
L 376.320664 132.058875 
L 360.320664 132.058875 
z
"/>
    </g>
    <g id="text_40">
     <!-- Original -->
     <g transform="translate(382.720664 137.658875) scale(0.08 -0.08)">
      <use xlink:href="#Cmr10-4f"/>
      <use xlink:href="#Cmr10-72" x="77.685547"/>
      <use xlink:href="#Cmr10-69" x="116.796875"/>
      <use xlink:href="#Cmr10-67" x="144.482422"/>
      <use xlink:href="#Cmr10-69" x="194.482422"/>
      <use xlink:href="#Cmr10-6e" x="222.167969"/>
      <use xlink:href="#Cmr10-61" x="277.685547"/>
      <use xlink:href="#Cmr10-6c" x="327.685547"/>
     </g>
    </g>
    <g id="patch_33">
     <path d="M 360.320664 148.907625 
L 376.320664 148.907625 
L 376.320664 143.307625 
L 360.320664 143.307625 
z
" style="fill: #808080"/>
    </g>
    <g id="text_41">
     <!-- FFT -->
     <g transform="translate(382.720664 148.907625) scale(0.08 -0.08)">
      <use xlink:href="#Cmr10-46"/>
      <use xlink:href="#Cmr10-46" x="65.185547"/>
      <use xlink:href="#Cmr10-54" x="130.371094"/>
     </g>
    </g>
    <g id="patch_34">
     <path d="M 360.320664 160.058875 
L 376.320664 160.058875 
L 376.320664 154.458875 
L 360.320664 154.458875 
z
" style="fill: #4682b4"/>
    </g>
    <g id="text_42">
     <!-- BitFit -->
     <g transform="translate(382.720664 160.058875) scale(0.08 -0.08)">
      <defs>
       <path id="Cmr10-42" d="M 219 0 
L 219 225 
Q 878 225 878 428 
L 878 3944 
Q 878 4147 219 4147 
L 219 4372 
L 2572 4372 
Q 2897 4372 3228 4245 
Q 3559 4119 3776 3870 
Q 3994 3622 3994 3284 
Q 3994 2894 3673 2630 
Q 3353 2366 2925 2284 
Q 3203 2284 3497 2131 
Q 3791 1978 3978 1722 
Q 4166 1466 4166 1178 
Q 4166 828 3958 559 
Q 3750 291 3419 145 
Q 3088 0 2753 0 
L 219 0 
z
M 1434 428 
Q 1434 291 1512 258 
Q 1591 225 1759 225 
L 2572 225 
Q 2822 225 3036 356 
Q 3250 488 3375 708 
Q 3500 928 3500 1178 
Q 3500 1422 3397 1655 
Q 3294 1888 3101 2038 
Q 2909 2188 2663 2188 
L 1434 2188 
L 1434 428 
z
M 1434 2356 
L 2394 2356 
Q 2588 2356 2758 2426 
Q 2928 2497 3064 2630 
Q 3200 2763 3273 2930 
Q 3347 3097 3347 3284 
Q 3347 3450 3292 3603 
Q 3238 3756 3131 3881 
Q 3025 4006 2881 4076 
Q 2738 4147 2572 4147 
L 1759 4147 
Q 1644 4147 1580 4137 
Q 1516 4128 1475 4083 
Q 1434 4038 1434 3944 
L 1434 2356 
z
" transform="scale(0.015625)"/>
      </defs>
      <use xlink:href="#Cmr10-42"/>
      <use xlink:href="#Cmr10-69" x="70.800781"/>
      <use xlink:href="#Cmr10-74" x="98.486328"/>
      <use xlink:href="#Cmr10-46" x="137.304688"/>
      <use xlink:href="#Cmr10-69" x="202.490234"/>
      <use xlink:href="#Cmr10-74" x="230.175781"/>
     </g>
    </g>
    <g id="patch_35">
     <path d="M 360.320664 171.210125 
L 376.320664 171.210125 
L 376.320664 165.610125 
L 360.320664 165.610125 
z
" style="fill: #228b22; opacity: 0.7"/>
    </g>
    <g id="text_43">
     <!-- LoRA -->
     <g transform="translate(382.720664 171.210125) scale(0.08 -0.08)">
      <defs>
       <path id="Cmr10-52" d="M 213 0 
L 213 225 
Q 872 225 872 428 
L 872 3944 
Q 872 4147 213 4147 
L 213 4372 
L 2222 4372 
Q 2581 4372 2976 4242 
Q 3372 4113 3637 3847 
Q 3903 3581 3903 3213 
Q 3903 2944 3742 2733 
Q 3581 2522 3329 2380 
Q 3078 2238 2816 2175 
Q 3103 2075 3318 1856 
Q 3534 1638 3578 1356 
L 3669 788 
Q 3731 403 3800 214 
Q 3869 25 4103 25 
Q 4303 25 4401 211 
Q 4500 397 4500 616 
Q 4500 638 4520 655 
Q 4541 672 4563 672 
L 4622 672 
Q 4684 672 4684 588 
Q 4684 413 4615 245 
Q 4547 78 4417 -31 
Q 4288 -141 4109 -141 
Q 3647 -141 3314 89 
Q 2981 319 2981 763 
L 2981 1331 
Q 2981 1650 2759 1878 
Q 2538 2106 2216 2106 
L 1447 2106 
L 1447 428 
Q 1447 225 2106 225 
L 2106 0 
L 213 0 
z
M 1447 2272 
L 2131 2272 
Q 2663 2272 2941 2486 
Q 3219 2700 3219 3213 
Q 3219 3722 2944 3934 
Q 2669 4147 2131 4147 
L 1772 4147 
Q 1656 4147 1592 4137 
Q 1528 4128 1487 4083 
Q 1447 4038 1447 3944 
L 1447 2272 
z
" transform="scale(0.015625)"/>
      </defs>
      <use xlink:href="#Cmr10-4c"/>
      <use xlink:href="#Cmr10-6f" x="62.5"/>
      <use xlink:href="#Cmr10-52" x="112.5"/>
      <use xlink:href="#Cmr10-41" x="186.083984"/>
     </g>
    </g>
   </g>
  </g>
 </g>
 <defs>
  <clipPath id="p45c1d06145">
   <rect x="26.2025" y="16.3695" width="392.148164" height="163.591875"/>
  </clipPath>
 </defs>
</svg>
